<svg width="340" height="345" viewBox="0 0 340 345" fill="none" xmlns="http://www.w3.org/2000/svg">
<path d="M0.130131 338.507C-0.142302 338.987 0.0263013 339.597 0.506716 339.87L8.33553 344.309C8.81595 344.582 9.42625 344.413 9.69869 343.933C9.97112 343.452 9.80252 342.842 9.3221 342.57L2.36315 338.623L6.30942 331.664C6.58185 331.184 6.41325 330.574 5.93284 330.301C5.45242 330.029 4.84212 330.197 4.56968 330.678L0.130131 338.507ZM1.26629 339.964C1.92414 339.782 2.58081 339.6 3.2363 339.418L2.70098 337.491C2.04641 337.673 1.39066 337.855 0.733714 338.036L1.26629 339.964ZM7.15503 338.324C8.45655 337.958 9.75336 337.592 11.0455 337.225L10.4991 335.301C9.20882 335.667 7.91387 336.033 6.6142 336.398L7.15503 338.324ZM14.9077 336.122C16.1904 335.753 17.4684 335.384 18.7417 335.015L18.1841 333.094C16.9126 333.463 15.6365 333.832 14.3557 334.199L14.9077 336.122ZM22.5477 333.904C23.8118 333.533 25.0711 333.161 26.3258 332.789L25.7568 330.871C24.504 331.243 23.2466 331.614 21.9845 331.985L22.5477 333.904ZM30.076 331.67C31.3214 331.296 32.5622 330.922 33.7984 330.547L33.2179 328.633C31.9836 329.007 30.7448 329.381 29.5013 329.754L30.076 331.67ZM37.5944 329.389C38.8962 328.989 40.1928 328.589 41.4843 328.189L40.8915 326.279C39.6021 326.679 38.3076 327.078 37.0078 327.477L37.5944 329.389ZM45.3432 326.984C46.6244 326.582 47.9004 326.179 49.1713 325.775L48.5659 323.869C47.2971 324.272 46.0232 324.674 44.7442 325.076L45.3432 326.984ZM52.9686 324.563C54.2292 324.158 55.4848 323.752 56.7352 323.345L56.1171 321.443C54.8688 321.849 53.6154 322.254 52.3568 322.658L52.9686 324.563ZM60.4713 322.124C61.7116 321.716 62.9468 321.308 64.177 320.899L63.5459 319.001C62.3179 319.409 61.0848 319.817 59.8467 320.224L60.4713 322.124ZM67.8523 319.67C69.1425 319.236 70.4271 318.801 71.7061 318.365L71.0614 316.472C69.7848 316.907 68.5025 317.341 67.2146 317.774L67.8523 319.67ZM75.5441 317.05C76.8178 316.611 78.0858 316.172 79.3482 315.731L78.6893 313.843C77.4293 314.282 76.1636 314.721 74.8923 315.16L75.5441 317.05ZM83.1186 314.407C84.3698 313.965 85.6153 313.523 86.8553 313.079L86.182 311.196C84.9444 311.639 83.7013 312.081 82.4525 312.522L83.1186 314.407ZM90.5586 311.747C91.7874 311.303 93.0107 310.857 94.2285 310.411L93.5405 308.533C92.3252 308.978 91.1044 309.423 89.878 309.867L90.5586 311.747ZM97.8651 309.071C99.1405 308.598 100.41 308.124 101.673 307.649L100.969 305.777C99.709 306.251 98.4425 306.723 97.1697 307.195L97.8651 309.071ZM105.468 306.215C106.726 305.736 107.979 305.256 109.225 304.775L108.506 302.909C107.262 303.389 106.012 303.867 104.756 304.345L105.468 306.215ZM112.946 303.332C114.18 302.85 115.408 302.367 116.63 301.884L115.894 300.024C114.675 300.506 113.45 300.988 112.219 301.469L112.946 303.332ZM120.277 300.432C121.487 299.947 122.69 299.461 123.888 298.975L123.135 297.122C121.941 297.607 120.74 298.091 119.533 298.575L120.277 300.432ZM127.542 297.481C128.804 296.962 130.059 296.442 131.307 295.922L130.537 294.076C129.292 294.595 128.04 295.114 126.781 295.632L127.542 297.481ZM135.032 294.357C136.266 293.835 137.494 293.312 138.716 292.788L137.927 290.95C136.709 291.472 135.484 291.994 134.253 292.515L135.032 294.357ZM142.359 291.215C143.566 290.69 144.767 290.164 145.962 289.637L145.155 287.807C143.964 288.332 142.766 288.857 141.561 289.381L142.359 291.215ZM149.524 288.055C150.725 287.518 151.92 286.98 153.107 286.442L152.281 284.62C151.097 285.157 149.906 285.694 148.708 286.229L149.524 288.055ZM156.817 284.747C158.047 284.181 159.268 283.614 160.483 283.047L159.636 281.235C158.425 281.801 157.207 282.366 155.981 282.93L156.817 284.747ZM164.103 281.343C165.303 280.774 166.495 280.205 167.679 279.634L166.812 277.832C165.631 278.401 164.442 278.969 163.246 279.536L164.103 281.343ZM171.211 277.922C172.381 277.35 173.543 276.778 174.699 276.205L173.81 274.413C172.658 274.984 171.499 275.555 170.333 276.125L171.211 277.922ZM178.282 274.413C179.498 273.801 180.706 273.187 181.906 272.573L180.995 270.793C179.799 271.405 178.595 272.017 177.382 272.627L178.282 274.413ZM185.481 270.728C186.664 270.112 187.839 269.496 189.006 268.879L188.071 267.111C186.908 267.726 185.737 268.34 184.558 268.954L185.481 270.728ZM192.483 267.025C193.633 266.407 194.776 265.788 195.911 265.168L194.952 263.413C193.821 264.03 192.683 264.647 191.536 265.264L192.483 267.025ZM199.376 263.259C200.57 262.596 201.755 261.932 202.93 261.267L201.946 259.526C200.775 260.188 199.594 260.85 198.405 261.511L199.376 263.259ZM206.429 259.272C207.587 258.606 208.735 257.939 209.875 257.272L208.864 255.546C207.729 256.211 206.585 256.875 205.432 257.538L206.429 259.272ZM213.266 255.268C214.388 254.6 215.5 253.931 216.604 253.261L215.567 251.551C214.467 252.218 213.359 252.884 212.242 253.55L213.266 255.268ZM220.009 251.175C221.169 250.459 222.318 249.741 223.457 249.023L222.391 247.331C221.257 248.046 220.112 248.761 218.958 249.474L220.009 251.175ZM226.846 246.868C227.965 246.148 229.075 245.428 230.175 244.708L229.079 243.035C227.984 243.752 226.88 244.469 225.765 245.185L226.846 246.868ZM233.445 242.545C234.531 241.82 235.607 241.094 236.673 240.367L235.547 238.714C234.486 239.437 233.415 240.16 232.334 240.882L233.445 242.545ZM240.039 238.049C241.15 237.276 242.251 236.503 243.34 235.728L242.181 234.098C241.097 234.869 240.003 235.638 238.897 236.408L240.039 238.049ZM246.575 233.404C247.642 232.629 248.699 231.853 249.745 231.076L248.553 229.47C247.512 230.243 246.461 231.014 245.399 231.786L246.575 233.404ZM252.85 228.746C253.942 227.918 255.021 227.09 256.088 226.261L254.862 224.682C253.8 225.506 252.727 226.329 251.642 227.153L252.85 228.746ZM259.263 223.767C260.309 222.935 261.343 222.103 262.365 221.27L261.102 219.719C260.086 220.547 259.058 221.374 258.018 222.201L259.263 223.767ZM265.396 218.771C266.406 217.928 267.404 217.085 268.391 216.242L267.091 214.722C266.111 215.56 265.119 216.398 264.115 217.236L265.396 218.771ZM271.473 213.571C272.487 212.68 273.488 211.789 274.476 210.898L273.137 209.412C272.155 210.298 271.161 211.183 270.153 212.068L271.473 213.571ZM277.402 208.223C278.364 207.332 279.313 206.44 280.249 205.548L278.87 204.1C277.94 204.985 276.998 205.871 276.042 206.756L277.402 208.223ZM283.143 202.751C284.113 201.8 285.069 200.849 286.01 199.898L284.588 198.491C283.654 199.435 282.706 200.379 281.743 201.323L283.143 202.751ZM288.791 197.044C289.704 196.093 290.603 195.142 291.488 194.191L290.024 192.828C289.146 193.772 288.254 194.715 287.348 195.659L288.791 197.044ZM294.179 191.251C295.09 190.239 295.986 189.227 296.866 188.216L295.357 186.903C294.485 187.906 293.597 188.909 292.693 189.913L294.179 191.251ZM299.461 185.182C300.31 184.171 301.144 183.16 301.963 182.15L300.409 180.891C299.598 181.892 298.771 182.893 297.929 183.895L299.461 185.182ZM304.451 179.024C305.287 177.952 306.107 176.88 306.911 175.81L305.311 174.61C304.515 175.67 303.703 176.731 302.874 177.793L304.451 179.024ZM309.27 172.6C310.04 171.531 310.794 170.462 311.531 169.395L309.886 168.258C309.156 169.315 308.41 170.373 307.647 171.431L309.27 172.6ZM313.794 166.044C314.539 164.916 315.266 163.788 315.976 162.662L314.283 161.596C313.582 162.71 312.862 163.826 312.125 164.943L313.794 166.044ZM318.051 159.286C318.735 158.145 319.402 157.005 320.051 155.866L318.313 154.876C317.672 156.001 317.013 157.129 316.336 158.257L318.051 159.286ZM322.016 152.32C322.652 151.14 323.269 149.962 323.868 148.785L322.085 147.878C321.494 149.041 320.884 150.205 320.255 151.372L322.016 152.32ZM325.608 145.261C326.197 144.031 326.766 142.803 327.315 141.577L325.489 140.76C324.947 141.97 324.386 143.182 323.804 144.397L325.608 145.261ZM328.906 137.898C329.417 136.675 329.908 135.453 330.38 134.234L328.515 133.512C328.049 134.715 327.565 135.92 327.06 137.128L328.906 137.898ZM331.786 130.453C332.238 129.183 332.67 127.916 333.082 126.653L331.18 126.033C330.774 127.279 330.348 128.529 329.902 129.782L331.786 130.453ZM334.256 122.872C334.639 121.575 335.001 120.282 335.342 118.992L333.409 118.481C333.073 119.752 332.716 121.026 332.338 122.305L334.256 122.872ZM336.313 115.097C336.615 113.803 336.897 112.513 337.159 111.227L335.199 110.828C334.941 112.095 334.664 113.366 334.365 114.642L336.313 115.097ZM337.904 107.261C338.133 105.936 338.34 104.617 338.526 103.302L336.546 103.021C336.362 104.316 336.158 105.616 335.933 106.921L337.904 107.261ZM339.023 99.3672C339.173 98.0203 339.301 96.6789 339.408 95.3434L337.414 95.184C337.309 96.499 337.183 97.8198 337.035 99.1463L339.023 99.3672ZM339.665 91.3549C339.731 90.0185 339.776 88.6884 339.8 87.3647L337.8 87.328C337.776 88.6312 337.732 89.9408 337.668 91.2566L339.665 91.3549ZM339.811 83.3392C339.794 82.0043 339.756 80.6764 339.699 79.3557L337.701 79.443C337.757 80.7432 337.795 82.0505 337.811 83.3648L339.811 83.3392ZM339.461 75.3456C339.361 74.0067 339.24 72.6758 339.1 71.353L337.111 71.5641C337.249 72.8664 337.368 74.1768 337.467 75.495L339.461 75.3456ZM338.618 67.3977C338.435 66.0616 338.231 64.7344 338.009 63.4164L336.037 63.7497C336.256 65.0475 336.456 66.3543 336.637 67.6699L338.618 67.3977ZM337.283 59.4902C337.019 58.1737 336.736 56.8668 336.434 55.5701L334.486 56.023C334.783 57.3001 335.062 58.5871 335.322 59.8836L337.283 59.4902ZM335.467 51.6794C335.126 50.3887 334.766 49.1086 334.389 47.8394L332.472 48.4088C332.843 49.659 333.197 50.9199 333.534 52.1911L335.467 51.6794ZM333.186 44C332.767 42.7317 332.332 41.4751 331.88 40.2305L330 40.913C330.445 42.1392 330.874 43.3772 331.286 44.6266L333.186 44ZM330.453 36.4753C329.959 35.2298 329.449 33.9971 328.923 32.7776L327.086 33.5695C327.604 34.7711 328.107 35.9858 328.594 37.2131L330.453 36.4753ZM327.286 29.1283C326.718 27.9095 326.135 26.7048 325.537 25.5147L323.75 26.412C324.339 27.5849 324.913 28.7721 325.473 29.9733L327.286 29.1283ZM323.699 21.9815C323.059 20.7929 322.405 19.62 321.738 18.4631L320.005 19.4623C320.663 20.6025 321.307 21.7585 321.938 22.9299L323.699 21.9815ZM319.698 15.041C318.99 13.8916 318.27 12.7594 317.538 11.6448L315.866 12.7426C316.588 13.841 317.297 14.9568 317.995 16.0896L319.698 15.041ZM315.298 8.33959C314.526 7.235 313.743 6.14935 312.949 5.08312L311.345 6.277C312.126 7.32747 312.898 8.39715 313.659 9.48557L315.298 8.33959ZM310.513 1.90884C310.103 1.39006 309.69 0.876354 309.275 0.367784L307.725 1.63222C308.134 2.13308 308.541 2.63904 308.945 3.15003L310.513 1.90884Z" fill="#41526D"/>
</svg>
