<svg width="340" height="345" viewBox="0 0 340 345" fill="none" xmlns="http://www.w3.org/2000/svg">
<path d="M339.692 338.507C339.965 338.987 339.796 339.597 339.316 339.87L331.487 344.309C331.006 344.582 330.396 344.413 330.124 343.933C329.851 343.452 330.02 342.842 330.5 342.57L337.459 338.623L333.513 331.664C333.24 331.184 333.409 330.574 333.889 330.301C334.37 330.029 334.98 330.197 335.253 330.678L339.692 338.507ZM338.556 339.964C337.898 339.782 337.241 339.6 336.586 339.418L337.121 337.491C337.776 337.673 338.432 337.855 339.089 338.036L338.556 339.964ZM332.667 338.324C331.366 337.958 330.069 337.592 328.777 337.225L329.323 335.301C330.613 335.667 331.908 336.033 333.208 336.398L332.667 338.324ZM324.915 336.122C323.632 335.753 322.354 335.384 321.081 335.015L321.638 333.094C322.91 333.463 324.186 333.832 325.467 334.199L324.915 336.122ZM317.275 333.904C316.011 333.533 314.751 333.161 313.496 332.789L314.065 330.871C315.318 331.243 316.576 331.614 317.838 331.985L317.275 333.904ZM309.746 331.67C308.501 331.296 307.26 330.922 306.024 330.547L306.604 328.633C307.839 329.007 309.077 329.381 310.321 329.754L309.746 331.67ZM302.228 329.389C300.926 328.989 299.629 328.589 298.338 328.189L298.931 326.279C300.22 326.679 301.515 327.078 302.814 327.477L302.228 329.389ZM294.479 326.984C293.198 326.582 291.922 326.179 290.651 325.775L291.256 323.869C292.525 324.272 293.799 324.674 295.078 325.076L294.479 326.984ZM286.854 324.563C285.593 324.158 284.337 323.752 283.087 323.345L283.705 321.443C284.953 321.849 286.207 322.254 287.465 322.658L286.854 324.563ZM279.351 322.124C278.111 321.716 276.875 321.308 275.645 320.899L276.276 319.001C277.504 319.409 278.737 319.817 279.976 320.224L279.351 322.124ZM271.97 319.67C270.68 319.236 269.395 318.801 268.116 318.365L268.761 316.472C270.037 316.907 271.32 317.341 272.608 317.774L271.97 319.67ZM264.278 317.05C263.004 316.611 261.736 316.172 260.474 315.731L261.133 313.843C262.393 314.282 263.659 314.721 264.93 315.16L264.278 317.05ZM256.704 314.407C255.452 313.965 254.207 313.523 252.967 313.079L253.64 311.196C254.878 311.639 256.121 312.081 257.37 312.522L256.704 314.407ZM249.264 311.747C248.035 311.303 246.812 310.857 245.594 310.411L246.282 308.533C247.497 308.978 248.718 309.423 249.944 309.867L249.264 311.747ZM241.957 309.071C240.682 308.598 239.413 308.124 238.15 307.649L238.853 305.777C240.113 306.251 241.38 306.723 242.653 307.195L241.957 309.071ZM234.355 306.215C233.096 305.736 231.843 305.256 230.597 304.775L231.316 302.909C232.56 303.389 233.81 303.867 235.066 304.345L234.355 306.215ZM226.876 303.332C225.642 302.85 224.414 302.367 223.192 301.884L223.928 300.024C225.147 300.506 226.372 300.988 227.604 301.469L226.876 303.332ZM219.545 300.432C218.335 299.947 217.132 299.461 215.934 298.975L216.687 297.122C217.882 297.607 219.082 298.091 220.289 298.575L219.545 300.432ZM212.28 297.481C211.018 296.962 209.763 296.442 208.515 295.922L209.285 294.076C210.53 294.595 211.782 295.114 213.041 295.632L212.28 297.481ZM204.79 294.357C203.556 293.835 202.328 293.312 201.107 292.788L201.895 290.95C203.113 291.472 204.338 291.994 205.57 292.515L204.79 294.357ZM197.464 291.215C196.256 290.69 195.055 290.164 193.861 289.637L194.668 287.807C195.859 288.332 197.057 288.857 198.261 289.381L197.464 291.215ZM190.298 288.055C189.097 287.518 187.903 286.98 186.715 286.442L187.541 284.62C188.725 285.157 189.916 285.694 191.114 286.229L190.298 288.055ZM183.005 284.747C181.776 284.181 180.554 283.614 179.34 283.047L180.186 281.235C181.397 281.801 182.615 282.366 183.841 282.93L183.005 284.747ZM175.719 281.343C174.52 280.774 173.328 280.205 172.143 279.634L173.01 277.832C174.192 278.401 175.38 278.969 176.576 279.536L175.719 281.343ZM168.611 277.922C167.441 277.35 166.279 276.778 165.124 276.205L166.012 274.413C167.164 274.984 168.323 275.555 169.489 276.125L168.611 277.922ZM161.54 274.413C160.324 273.801 159.116 273.187 157.916 272.573L158.828 270.793C160.023 271.405 161.228 272.017 162.44 272.627L161.54 274.413ZM154.342 270.728C153.158 270.112 151.983 269.496 150.816 268.879L151.751 267.111C152.914 267.726 154.085 268.34 155.265 268.954L154.342 270.728ZM147.34 267.025C146.189 266.407 145.046 265.788 143.912 265.168L144.87 263.413C146.001 264.03 147.14 264.647 148.286 265.264L147.34 267.025ZM140.446 263.259C139.252 262.596 138.068 261.932 136.892 261.267L137.876 259.526C139.048 260.188 140.228 260.85 141.417 261.511L140.446 263.259ZM133.393 259.272C132.235 258.606 131.087 257.939 129.948 257.272L130.958 255.546C132.093 256.211 133.237 256.875 134.39 257.538L133.393 259.272ZM126.556 255.268C125.435 254.6 124.322 253.931 123.218 253.261L124.256 251.551C125.355 252.218 126.463 252.884 127.58 253.55L126.556 255.268ZM119.813 251.175C118.654 250.459 117.504 249.741 116.365 249.023L117.431 247.331C118.566 248.046 119.71 248.761 120.865 249.474L119.813 251.175ZM112.976 246.867C111.857 246.148 110.747 245.428 109.647 244.708L110.743 243.035C111.838 243.752 112.943 244.469 114.057 245.185L112.976 246.867ZM106.377 242.545C105.291 241.82 104.215 241.094 103.149 240.367L104.275 238.714C105.336 239.437 106.407 240.16 107.488 240.882L106.377 242.545ZM99.7829 238.049C98.6718 237.276 97.5717 236.503 96.4826 235.728L97.6414 234.098C98.7251 234.869 99.8197 235.638 100.925 236.408L99.7829 238.049ZM93.2476 233.404C92.1802 232.629 91.1235 231.853 90.0776 231.076L91.2696 229.47C92.3099 230.243 93.361 231.014 94.423 231.786L93.2476 233.404ZM86.972 228.746C85.8806 227.918 84.8013 227.09 83.7339 226.261L84.9606 224.682C86.0219 225.506 87.0953 226.329 88.1807 227.153L86.972 228.746ZM80.5597 223.767C79.5136 222.935 78.4795 222.103 77.4572 221.27L78.7202 219.719C79.7364 220.547 80.7644 221.374 81.8045 222.201L80.5597 223.767ZM74.4258 218.771C73.4158 217.928 72.4178 217.085 71.4317 216.242L72.7317 214.722C73.7115 215.56 74.7033 216.398 75.7072 217.236L74.4258 218.771ZM68.3493 213.571C67.3351 212.68 66.334 211.789 65.3459 210.898L66.6855 209.412C67.6669 210.298 68.6614 211.183 69.669 212.068L68.3493 213.571ZM62.4207 208.223C61.4586 207.332 60.5095 206.44 59.5731 205.548L60.9525 204.1C61.8822 204.985 62.8247 205.871 63.7802 206.756L62.4207 208.223ZM56.6791 202.751C55.7091 201.8 54.7535 200.849 53.8122 199.898L55.2338 198.491C56.168 199.435 57.1165 200.379 58.0794 201.323L56.6791 202.751ZM51.0309 197.044C50.118 196.093 49.2192 195.142 48.3344 194.191L49.7986 192.828C50.6763 193.772 51.568 194.715 52.4738 195.659L51.0309 197.044ZM45.6434 191.251C44.732 190.239 43.8363 189.227 42.9561 188.216L44.4648 186.903C45.3376 187.906 46.2257 188.909 47.1296 189.913L45.6434 191.251ZM40.3617 185.182C39.5123 184.171 38.6783 183.16 37.8593 182.15L39.4129 180.891C40.2244 181.892 41.0511 182.893 41.893 183.895L40.3617 185.182ZM35.3716 179.024C34.5349 177.952 33.715 176.88 32.9117 175.81L34.5116 174.61C35.3071 175.67 36.1192 176.731 36.9481 177.793L35.3716 179.024ZM30.5519 172.6C29.7819 171.531 29.0283 170.462 28.2909 169.395L29.9366 168.258C30.6664 169.315 31.4124 170.373 32.1748 171.431L30.5519 172.6ZM26.0281 166.044C25.283 164.916 24.5559 163.788 23.8466 162.662L25.539 161.596C26.2406 162.71 26.96 163.826 27.6972 164.943L26.0281 166.044ZM21.7715 159.286C21.0869 158.145 20.4203 157.005 19.7716 155.866L21.5093 154.876C22.1507 156.001 22.8097 157.129 23.4867 158.257L21.7715 159.286ZM17.8062 152.32C17.1701 151.14 16.5529 149.962 15.9544 148.785L17.737 147.878C18.3283 149.041 18.9381 150.205 19.5668 151.372L17.8062 152.32ZM14.2143 145.261C13.6253 144.031 13.0565 142.803 12.5076 141.577L14.3329 140.76C14.8748 141.97 15.4365 143.182 16.0182 144.397L14.2143 145.261ZM10.9162 137.898C10.4054 136.675 9.91422 135.453 9.44229 134.234L11.3073 133.512C11.773 134.715 12.2578 135.92 12.7619 137.128L10.9162 137.898ZM8.03641 130.453C7.5838 129.183 7.15192 127.916 6.74033 126.653L8.642 126.033C9.04788 127.279 9.47388 128.529 9.92032 129.782L8.03641 130.453ZM5.56613 122.872C5.18298 121.575 4.82108 120.282 4.47992 118.992L6.41339 118.481C6.74966 119.752 7.10645 121.026 7.48416 122.305L5.56613 122.872ZM3.5094 115.097C3.20679 113.803 2.9249 112.513 2.66333 111.227L4.62317 110.828C4.88092 112.095 5.15866 113.366 5.45688 114.642L3.5094 115.097ZM1.91806 107.261C1.68967 105.936 1.48267 104.617 1.29648 103.302L3.2767 103.021C3.46008 104.316 3.664 105.616 3.88898 106.921L1.91806 107.261ZM0.799225 99.3672C0.649536 98.0203 0.521545 96.6789 0.414703 95.3434L2.40836 95.184C2.51355 96.499 2.63959 97.8198 2.78699 99.1463L0.799225 99.3672ZM0.157104 91.3549C0.0913696 90.0185 0.0466309 88.6884 0.0223389 87.3647L2.022 87.328C2.04593 88.6312 2.08997 89.9408 2.15469 91.2566L0.157104 91.3549ZM0.0111084 83.3392C0.0281677 82.0043 0.0658264 80.6764 0.123505 79.3557L2.12161 79.443C2.06482 80.7432 2.02774 82.0505 2.01096 83.3648L0.0111084 83.3392ZM0.361206 75.3456C0.461487 74.0067 0.582153 72.6758 0.722565 71.353L2.7114 71.5641C2.57315 72.8664 2.45435 74.1768 2.35562 75.495L0.361206 75.3456ZM1.20401 67.3977C1.38748 66.0616 1.59097 64.7344 1.81372 63.4164L3.78577 63.7497C3.56641 65.0475 3.36606 66.3543 3.18539 67.6699L1.20401 67.3977ZM2.53915 59.4902C2.80322 58.1737 3.0864 56.8668 3.38791 55.5701L5.33594 56.023C5.039 57.3001 4.76013 58.5871 4.50009 59.8836L2.53915 59.4902ZM4.35495 51.6794C4.69656 50.3887 5.05624 49.1086 5.43317 47.8394L7.3504 48.4088C6.9791 49.659 6.62485 50.9199 6.28836 52.1911L4.35495 51.6794ZM6.63647 44C7.05493 42.7317 7.49048 41.4751 7.94235 40.2305L9.8223 40.913C9.37711 42.1392 8.948 43.3772 8.53577 44.6266L6.63647 44ZM9.36887 36.4753C9.86319 35.2298 10.3737 33.9971 10.8994 32.7776L12.736 33.5695C12.2179 34.7711 11.7149 35.9858 11.2278 37.2131L9.36887 36.4753ZM12.5363 29.1283C13.1045 27.9095 13.6877 26.7048 14.2852 25.5147L16.0726 26.412C15.4838 27.5849 14.909 28.7721 14.3491 29.9733L12.5363 29.1283ZM16.1231 21.9815C16.7633 20.7929 17.4174 19.62 18.0846 18.4631L19.8172 19.4623C19.1596 20.6025 18.5149 21.7585 17.8839 22.9299L16.1231 21.9815ZM20.1243 15.041C20.832 13.8916 21.5523 12.7594 22.2842 11.6448L23.956 12.7426C23.2347 13.841 22.5248 14.9568 21.8274 16.0896L20.1243 15.041ZM24.5241 8.33959C25.2964 7.235 26.0797 6.14935 26.873 5.08312L28.4776 6.277C27.696 7.32747 26.9242 8.39715 26.1632 9.48557L24.5241 8.33959ZM29.3091 1.90884C29.7196 1.39006 30.1325 0.876354 30.5475 0.367784L32.097 1.63222C31.6884 2.13308 31.2817 2.63904 30.8773 3.15003L29.3091 1.90884Z" fill="#41526D"/>
</svg>
