<svg width="79" height="79" viewBox="0 0 79 79" fill="none" xmlns="http://www.w3.org/2000/svg">
<g clip-path="url(#clip0_930_446)">
<path fill-rule="evenodd" clip-rule="evenodd" d="M16.5792 34.1854L9.69141 31.608V29.0093H16.8277V34.1854H16.5792Z" fill="#4072A5"/>
<path fill-rule="evenodd" clip-rule="evenodd" d="M62.4204 34.1854L69.3082 31.608V29.0093H62.1719V34.1854H62.4204Z" fill="#4072A5"/>
<path fill-rule="evenodd" clip-rule="evenodd" d="M33.5115 24.9971C33.3372 24.9977 33.1648 24.9609 33.0058 24.8894C32.8468 24.8179 32.705 24.7132 32.5898 24.5824C30.7162 22.1596 29.7288 19.1683 29.7919 16.1063C29.8534 14.18 30.3461 12.292 31.2337 10.5813C31.8397 9.46354 32.1989 8.22881 32.287 6.96042C32.3218 6.07171 32.1604 5.18624 31.8142 4.36699C31.4681 3.54774 30.9456 2.81484 30.284 2.22042C30.0221 2.02399 29.849 1.73157 29.8027 1.40748C29.7564 1.0834 29.8407 0.754192 30.0371 0.49229C30.2336 0.230389 30.526 0.0572444 30.8501 0.0109463C31.1742 -0.0353518 31.5034 0.0489892 31.7653 0.245415C32.7343 1.06888 33.5064 2.09913 34.0248 3.26035C34.5432 4.42158 34.7947 5.68425 34.7607 6.95548C34.6833 8.57389 34.2512 10.1555 33.495 11.5885C32.75 12.9829 32.3276 14.5268 32.259 16.1063C32.2129 18.5674 32.9832 20.9744 34.4496 22.9513C34.6048 23.1303 34.7053 23.3502 34.7392 23.5847C34.773 23.8192 34.7387 24.0585 34.6403 24.2741C34.542 24.4896 34.3838 24.6724 34.1845 24.8006C33.9853 24.9288 33.7534 24.997 33.5164 24.9971H33.5115Z" fill="#D9F0FB"/>
<path fill-rule="evenodd" clip-rule="evenodd" d="M40.7451 24.9971C40.5708 24.9977 40.3984 24.9609 40.2394 24.8894C40.0804 24.8179 39.9386 24.7132 39.8234 24.5824C37.9498 22.1596 36.9624 19.1683 37.0255 16.1063C37.0878 14.1801 37.5804 12.2923 38.4673 10.5812C39.0733 9.46354 39.4325 8.22881 39.5206 6.96042C39.5544 6.07107 39.3917 5.1852 39.0441 4.36591C38.6965 3.54662 38.1725 2.81407 37.5094 2.22042C37.2475 2.02399 37.0743 1.73157 37.028 1.40748C36.9817 1.0834 37.0661 0.754191 37.2625 0.49229C37.4589 0.230389 37.7514 0.0572443 38.0754 0.0109463C38.3995 -0.0353518 38.7287 0.0489892 38.9906 0.245415C39.9597 1.06888 40.7318 2.09913 41.2502 3.26035C41.7686 4.42158 42.02 5.68425 41.986 6.95548C41.9087 8.57389 41.4766 10.1555 40.7204 11.5885C39.9772 12.9844 39.557 14.5295 39.491 16.1096C39.4448 18.5706 40.2151 20.9777 41.6816 22.9546C41.8368 23.1336 41.9373 23.3535 41.9711 23.588C42.0049 23.8225 41.9706 24.0618 41.8723 24.2773C41.774 24.4929 41.6157 24.6757 41.4165 24.8039C41.2172 24.9321 40.9853 25.0003 40.7484 25.0004L40.7451 24.9971Z" fill="#D9F0FB"/>
<path fill-rule="evenodd" clip-rule="evenodd" d="M47.9768 24.9967C47.8025 24.9972 47.6301 24.9605 47.4711 24.889C47.3121 24.8175 47.1703 24.7128 47.0551 24.5819C45.1815 22.1592 44.1941 19.1679 44.2572 16.1059C44.3195 14.1797 44.8121 12.2919 45.699 10.5808C46.305 9.46313 46.6642 8.22839 46.7523 6.96C46.7857 6.07253 46.6234 5.18858 46.277 4.37083C45.9306 3.55309 45.4084 2.8216 44.7477 2.22823C44.4858 2.0318 44.3126 1.73938 44.2663 1.41529C44.22 1.09121 44.3044 0.762004 44.5008 0.500103C44.6972 0.238201 44.9896 0.0650568 45.3137 0.0187588C45.6378 -0.0275393 45.967 0.0568017 46.2289 0.253228C47.1937 1.0769 47.9621 2.10591 48.4779 3.26493C48.9936 4.42396 49.2436 5.68364 49.2095 6.95177C49.1321 8.57018 48.7001 10.1518 47.9439 11.5848C47.2014 12.981 46.7813 14.5259 46.7144 16.1059C46.6683 18.5669 47.4386 20.974 48.905 22.9509C49.061 23.1297 49.1621 23.3496 49.1963 23.5844C49.2305 23.8191 49.1963 24.0588 49.0979 24.2746C48.9994 24.4904 48.8408 24.6733 48.6411 24.8014C48.4415 24.9295 48.2091 24.9973 47.9719 24.9967H47.9768Z" fill="#D9F0FB"/>
<path d="M27.2383 58.9272H24.7695V64.9444H27.2383V58.9272Z" fill="#95CFE1"/>
<path d="M54.2754 58.9272H51.8066V64.9444H54.2754V58.9272Z" fill="#95CFE1"/>
<path fill-rule="evenodd" clip-rule="evenodd" d="M16.5798 29.0093H62.4195V52.413C62.4195 53.3182 62.2412 54.2145 61.8948 55.0508C61.5485 55.887 61.0407 56.6469 60.4007 57.2869C59.7606 57.927 59.0008 58.4347 58.1645 58.7811C57.3282 59.1275 56.4319 59.3058 55.5268 59.3058H23.4709C21.6428 59.3058 19.8896 58.5796 18.597 57.2869C17.3043 55.9943 16.5781 54.2411 16.5781 52.413V29.0093H16.5798Z" fill="#E58332"/>
<path fill-rule="evenodd" clip-rule="evenodd" d="M21.332 36.7924C21.332 41.9835 23.394 46.9619 27.0645 50.6327C30.735 54.3034 35.7132 56.3659 40.9043 56.3663H60.279C60.6019 56.3567 60.9236 56.3242 61.2418 56.2692C62.0119 55.1308 62.4224 53.7874 62.4203 52.413V29.0093H21.332V36.7924Z" fill="#E59B43"/>
<path d="M69.3084 64.5498H9.69141V77.7658H69.3084V64.5498Z" fill="#D2F0FB"/>
<path fill-rule="evenodd" clip-rule="evenodd" d="M22.0896 75.6361H69.3069V64.5498H14.4414V67.9879C14.4414 70.0164 15.2472 71.9617 16.6815 73.396C18.1158 74.8303 20.0612 75.6361 22.0896 75.6361Z" fill="#E5F9FF"/>
<path d="M56.1385 75.2242C57.8492 75.2242 59.2359 73.8374 59.2359 72.1268C59.2359 70.4161 57.8492 69.0293 56.1385 69.0293C54.4278 69.0293 53.041 70.4161 53.041 72.1268C53.041 73.8374 54.4278 75.2242 56.1385 75.2242Z" fill="#4072A5"/>
<path d="M39.5232 75.2242C41.2339 75.2242 42.6207 73.8374 42.6207 72.1268C42.6207 70.4161 41.2339 69.0293 39.5232 69.0293C37.8126 69.0293 36.4258 70.4161 36.4258 72.1268C36.4258 73.8374 37.8126 75.2242 39.5232 75.2242Z" fill="#4072A5"/>
<path d="M22.9041 75.2242C24.6148 75.2242 26.0016 73.8374 26.0016 72.1268C26.0016 70.4161 24.6148 69.0293 22.9041 69.0293C21.1934 69.0293 19.8066 70.4161 19.8066 72.1268C19.8066 73.8374 21.1934 75.2242 22.9041 75.2242Z" fill="#4072A5"/>
</g>
<defs>
<clipPath id="clip0_930_446">
<rect width="79" height="79" fill="white"/>
</clipPath>
</defs>
</svg>
