<svg width="16" height="21" viewBox="0 0 16 21" fill="none" xmlns="http://www.w3.org/2000/svg">
<path d="M14.8206 2.22389H11.719V1.24082C11.7183 0.911944 11.5873 0.596738 11.3548 0.364189C11.1222 0.131641 10.807 0.000690187 10.4782 0H5.52316C5.19409 0.000402536 4.87861 0.131226 4.64583 0.363806C4.41304 0.596385 4.28194 0.911755 4.28125 1.24082V2.22389H1.17965C0.86689 2.22424 0.567044 2.34863 0.345892 2.56978C0.12474 2.79094 0.000345714 3.09078 0 3.40354V4.67853C0.000403199 4.99127 0.124816 5.29108 0.345956 5.51222C0.567095 5.73336 0.866908 5.85777 1.17965 5.85818H1.1951V18.7106C1.19556 19.146 1.36868 19.5633 1.67647 19.8711C1.98426 20.179 2.40159 20.3521 2.8369 20.3527H13.1633C13.5986 20.3521 14.016 20.179 14.3237 19.8711C14.6315 19.5633 14.8047 19.146 14.8051 18.7106V5.85818H14.8206C15.1333 5.85777 15.4331 5.73335 15.6542 5.51221C15.8753 5.29106 15.9997 4.99125 16 4.67853V3.40354C15.9997 3.0908 15.8754 2.79095 15.6542 2.5698C15.4331 2.34864 15.1333 2.22424 14.8206 2.22389ZM5.04316 1.24082C5.04356 1.11374 5.0943 0.991993 5.18426 0.902236C5.27422 0.812478 5.39608 0.762019 5.52316 0.761905H10.4771C10.604 0.762307 10.7255 0.812892 10.8153 0.902619C10.905 0.992345 10.9556 1.11392 10.956 1.24082V2.22389H5.04316V1.24082ZM14.0432 18.7106C14.043 18.944 13.9502 19.1676 13.7853 19.3326C13.6203 19.4976 13.3966 19.5905 13.1633 19.5907H2.8369C2.60359 19.5905 2.37992 19.4976 2.21496 19.3326C2.05001 19.1676 1.95724 18.944 1.95701 18.7106V5.85818H14.0432V18.7106ZM15.2381 4.67853C15.238 4.78927 15.194 4.89545 15.1158 4.97378C15.0375 5.0521 14.9313 5.09616 14.8206 5.09627H1.17965C1.06889 5.09616 0.962702 5.05211 0.884386 4.97379C0.806069 4.89547 0.76202 4.78929 0.761905 4.67853V3.40354C0.76202 3.29278 0.806069 3.18659 0.884386 3.10828C0.962702 3.02996 1.06889 2.98591 1.17965 2.9858H14.8206C14.9313 2.98591 15.0375 3.02997 15.1158 3.10829C15.194 3.18661 15.238 3.2928 15.2381 3.40354V4.67853Z" fill="black"/>
<path d="M8.00022 17.0422C8.05025 17.0423 8.0998 17.0324 8.14603 17.0133C8.19227 16.9942 8.23427 16.9661 8.26965 16.9307C8.30503 16.8954 8.33309 16.8533 8.35223 16.8071C8.37136 16.7609 8.3812 16.7113 8.38117 16.6613V8.78842C8.38117 8.68739 8.34103 8.59049 8.26959 8.51905C8.19815 8.44761 8.10125 8.40747 8.00022 8.40747C7.89918 8.40747 7.80228 8.44761 7.73084 8.51905C7.6594 8.59049 7.61926 8.68739 7.61926 8.78842V16.6613C7.61926 16.7623 7.6594 16.8592 7.73084 16.9307C7.80228 17.0021 7.89918 17.0422 8.00022 17.0422ZM11.338 17.0422C11.439 17.0422 11.5359 17.0021 11.6074 16.9307C11.6788 16.8592 11.719 16.7623 11.719 16.6613V8.78842C11.719 8.68739 11.6788 8.59049 11.6074 8.51905C11.5359 8.44761 11.439 8.40747 11.338 8.40747C11.237 8.40747 11.1401 8.44761 11.0686 8.51905C10.9972 8.59049 10.9571 8.68739 10.9571 8.78842V16.6613C10.9571 16.7623 10.9972 16.8592 11.0686 16.9307C11.1401 17.0021 11.237 17.0422 11.338 17.0422ZM4.6622 17.0422C4.76324 17.0422 4.86013 17.0021 4.93158 16.9307C5.00302 16.8592 5.04315 16.7623 5.04315 16.6613V8.78842C5.04315 8.68739 5.00302 8.59049 4.93158 8.51905C4.86013 8.44761 4.76324 8.40747 4.6622 8.40747C4.56117 8.40747 4.46427 8.44761 4.39283 8.51905C4.32139 8.59049 4.28125 8.68739 4.28125 8.78842V16.6613C4.28125 16.7623 4.32139 16.8592 4.39283 16.9307C4.46427 17.0021 4.56117 17.0422 4.6622 17.0422Z" fill="black"/>
</svg>
