<svg width="167" height="95" viewBox="0 0 167 95" fill="none" xmlns="http://www.w3.org/2000/svg">
<path d="M83.5 26.1686L17.7158 91.9529C15.7442 93.8571 13.1036 94.9107 10.3627 94.8869C7.62183 94.8631 4.99995 93.7637 3.06178 91.8255C1.1236 89.8873 0.0242128 87.2655 0.00039517 84.5246C-0.0234224 81.7837 1.03024 79.1431 2.93444 77.1715L76.1093 3.99664C77.0793 3.02503 78.2313 2.2542 79.4995 1.72828C80.7677 1.20235 82.1271 0.931641 83.5 0.931641C84.8729 0.931641 86.2323 1.20235 87.5005 1.72828C88.7687 2.2542 89.9207 3.02503 90.8907 3.99664L164.066 77.1715C165.97 79.1431 167.023 81.7837 167 84.5246C166.976 87.2655 165.876 89.8873 163.938 91.8255C162 93.7637 159.378 94.8631 156.637 94.8869C153.896 94.9107 151.256 93.8571 149.284 91.9529L83.5 26.1686Z" fill="white"/>
</svg>
