<svg width="54" height="74" viewBox="0 0 54 74" fill="none" xmlns="http://www.w3.org/2000/svg">
<path d="M27 0C12.1119 0 0 12.1119 0 27C0 31.9013 2.19812 37.1726 2.29024 37.395C3.00018 39.0801 4.401 41.6975 5.41112 43.2318L23.9236 71.2816C24.6812 72.4315 25.8025 73.0906 27 73.0906C28.1975 73.0906 29.3188 72.4315 30.0764 71.2832L48.5905 43.2318C49.6022 41.6975 51.0014 39.0801 51.7113 37.395C51.8035 37.1742 54 31.9029 54 27C54 12.1119 41.8881 0 27 0ZM48.7826 36.1625C48.1489 37.6729 46.845 40.1077 45.9381 41.4831L27.4241 69.5345C27.0588 70.0888 26.9428 70.0888 26.5775 69.5345L8.06347 41.4831C7.15659 40.1077 5.85265 37.6714 5.21894 36.1609C5.19194 36.0958 3.17647 31.2438 3.17647 27C3.17647 13.8637 13.8637 3.17647 27 3.17647C40.1363 3.17647 50.8235 13.8637 50.8235 27C50.8235 31.2501 48.8033 36.1149 48.7826 36.1625Z" fill="#274C5B"/>
<path d="M26.9992 12.7075C19.1168 12.7075 12.7051 19.1208 12.7051 27.0016C12.7051 34.8825 19.1168 41.2958 26.9992 41.2958C34.8816 41.2958 41.2933 34.8825 41.2933 27.0016C41.2933 19.1208 34.8816 12.7075 26.9992 12.7075ZM26.9992 38.1193C20.8702 38.1193 15.8815 33.1322 15.8815 27.0016C15.8815 20.871 20.8702 15.884 26.9992 15.884C33.1282 15.884 38.1168 20.871 38.1168 27.0016C38.1168 33.1322 33.1282 38.1193 26.9992 38.1193Z" fill="#274C5B"/>
</svg>
