<svg width="16" height="13" viewBox="0 0 16 13" fill="none" xmlns="http://www.w3.org/2000/svg">
<path d="M14.0325 0H1.96747C1.44584 0.000564689 0.945731 0.208032 0.576881 0.576881C0.208032 0.945731 0.000564689 1.44584 0 1.96747V10.8325C0.000564689 11.3542 0.208032 11.8543 0.576881 12.2231C0.945731 12.592 1.44584 12.7994 1.96747 12.8H14.0325C14.5542 12.7994 15.0543 12.592 15.4231 12.2231C15.792 11.8543 15.9994 11.3542 16 10.8325V1.96747C15.9994 1.44584 15.792 0.945731 15.4231 0.576881C15.0543 0.208032 14.5542 0.000564689 14.0325 0ZM1.96747 1.06667H14.0325C14.2714 1.06695 14.5003 1.16194 14.6692 1.33082C14.8381 1.49969 14.9331 1.72865 14.9333 1.96747V2.37547L8 6.83253L1.06667 2.37547V1.96747C1.06695 1.72865 1.16195 1.49969 1.33082 1.33082C1.49969 1.16194 1.72865 1.06695 1.96747 1.06667ZM14.0325 11.7333H1.96747C1.72865 11.7331 1.49969 11.6381 1.33082 11.4692C1.16195 11.3003 1.06695 11.0714 1.06667 10.8325V3.64373L7.71147 7.9152C7.79752 7.97055 7.89768 7.99999 8 7.99999C8.10232 7.99999 8.20248 7.97055 8.28853 7.9152L14.9333 3.64373V10.8325C14.9331 11.0714 14.8381 11.3003 14.6692 11.4692C14.5003 11.6381 14.2714 11.7331 14.0325 11.7333Z" fill="black"/>
</svg>
