<svg width="17" height="21" viewBox="0 0 17 21" fill="none" xmlns="http://www.w3.org/2000/svg">
<path d="M14 7.399H13.629V5.229C13.629 3.84218 13.0781 2.51217 12.0975 1.53154C11.1168 0.550911 9.78682 0 8.4 0C7.01318 0 5.68317 0.550911 4.70254 1.53154C3.72191 2.51217 3.171 3.84218 3.171 5.229V7.399H2.8C2.05739 7.399 1.3452 7.694 0.820101 8.2191C0.294999 8.7442 0 9.45639 0 10.199V18.2C0 18.9426 0.294999 19.6548 0.820101 20.1799C1.3452 20.705 2.05739 21 2.8 21H14C14.7426 21 15.4548 20.705 15.9799 20.1799C16.505 19.6548 16.8 18.9426 16.8 18.2V10.199C16.8 9.45639 16.505 8.7442 15.9799 8.2191C15.4548 7.694 14.7426 7.399 14 7.399ZM4.571 5.229C4.571 4.72617 4.67004 4.22826 4.86246 3.76371C5.05489 3.29915 5.33693 2.87704 5.69249 2.52149C6.04804 2.16593 6.47015 1.88389 6.93471 1.69147C7.39926 1.49904 7.89717 1.4 8.4 1.4C8.90283 1.4 9.40074 1.49904 9.8653 1.69147C10.3299 1.88389 10.752 2.16593 11.1075 2.52149C11.4631 2.87704 11.7451 3.29915 11.9375 3.76371C12.13 4.22826 12.229 4.72617 12.229 5.229V7.399H4.571V5.229ZM15.4 18.2C15.4 18.5713 15.2525 18.9274 14.9899 19.1899C14.7274 19.4525 14.3713 19.6 14 19.6H2.8C2.4287 19.6 2.0726 19.4525 1.81005 19.1899C1.5475 18.9274 1.4 18.5713 1.4 18.2V10.199C1.4 9.8277 1.5475 9.4716 1.81005 9.20905C2.0726 8.9465 2.4287 8.799 2.8 8.799H14C14.3713 8.799 14.7274 8.9465 14.9899 9.20905C15.2525 9.4716 15.4 9.8277 15.4 10.199V18.2Z" fill="black"/>
<path d="M8.40035 11.8481C8.12877 11.8482 7.8634 11.9294 7.63824 12.0812C7.41308 12.2331 7.2384 12.4487 7.13658 12.7005C7.03475 12.9523 7.01043 13.2287 7.06673 13.4944C7.12302 13.7601 7.25737 14.0029 7.45255 14.1917V15.8514C7.45255 16.0371 7.5263 16.2151 7.65758 16.3464C7.78885 16.4777 7.9669 16.5514 8.15255 16.5514H8.64815C8.8338 16.5514 9.01185 16.4777 9.14313 16.3464C9.2744 16.2151 9.34815 16.0371 9.34815 15.8514V14.1917C9.54333 14.0029 9.67768 13.7601 9.73398 13.4944C9.79027 13.2287 9.76595 12.9523 9.66413 12.7005C9.56231 12.4487 9.38762 12.2331 9.16247 12.0812C8.93731 11.9294 8.67193 11.8482 8.40035 11.8481Z" fill="black"/>
</svg>
