<svg width="28" height="32" viewBox="0 0 28 32" fill="none" xmlns="http://www.w3.org/2000/svg">
<path d="M24.0688 31.9997H3.625C1.625 31.9935 0.00625 30.3747 0 28.3747V26.7747C0 22.8622 1.64375 19.131 4.5375 16.4997C5.74375 15.406 7.5375 15.256 8.90625 16.1372C10.3375 17.056 12.0438 17.5435 13.85 17.5435C15.6563 17.5435 17.3625 17.056 18.7938 16.1372C20.1625 15.256 21.9563 15.406 23.1625 16.4997C26.0563 19.131 27.7063 22.8622 27.7 26.7747V28.3747C27.6938 30.381 26.0688 31.9997 24.0688 31.9997ZM6.95625 16.8122C6.36875 16.8122 5.80625 17.031 5.375 17.4247C2.74375 19.8185 1.24375 23.2185 1.24375 26.7747V28.3747C1.25 29.6872 2.30625 30.7435 3.61875 30.7497H24.0625C25.375 30.7497 26.4375 29.6872 26.4375 28.3747V26.7747C26.4375 23.2185 24.9375 19.8247 22.3062 17.4247C21.5187 16.7122 20.35 16.6122 19.4563 17.1872C17.825 18.2372 15.8812 18.7935 13.8375 18.7935C11.7937 18.7935 9.85 18.2372 8.21875 17.1872C7.85 16.9435 7.40625 16.8122 6.95625 16.8122Z" fill="black"/>
<path d="M13.8496 16.125C9.39961 16.1187 5.79336 12.5125 5.78711 8.0625C5.78711 3.61875 9.39961 0 13.8496 0C18.2996 0.00625 21.9059 3.6125 21.9121 8.0625C21.9059 12.5062 18.2934 16.125 13.8496 16.125ZM13.8496 1.25625C10.0871 1.25625 7.03711 4.30625 7.03711 8.06875C7.03711 11.8313 10.0871 14.8813 13.8496 14.8813C17.6121 14.8813 20.6621 11.8313 20.6621 8.06875C20.6559 4.30625 17.6121 1.25625 13.8496 1.25625Z" fill="black"/>
</svg>
