<svg width="17" height="17" viewBox="0 0 17 17" fill="none" xmlns="http://www.w3.org/2000/svg">
<path d="M5.86523 8.26249C6.47622 9.52422 7.49647 10.5419 8.75977 11.1496C8.85295 11.1937 8.95602 11.2128 9.05883 11.205C9.16164 11.1972 9.26064 11.1628 9.34609 11.1051L11.2016 9.86562C11.2835 9.81002 11.3783 9.77609 11.4769 9.76701C11.5755 9.75792 11.6749 9.77397 11.7656 9.81367L15.2391 11.3055C15.3578 11.3549 15.457 11.4419 15.5213 11.5532C15.5857 11.6646 15.6117 11.7939 15.5953 11.9215C15.4852 12.7807 15.0658 13.5704 14.4156 14.1428C13.7653 14.7152 12.9288 15.031 12.0625 15.0312C9.38547 15.0312 6.81809 13.9678 4.92514 12.0749C3.0322 10.1819 1.96875 7.61452 1.96875 4.93749C1.96895 4.07121 2.28478 3.23468 2.85717 2.58443C3.42955 1.93418 4.21926 1.51477 5.07852 1.40468C5.20605 1.3883 5.33544 1.4143 5.44675 1.47867C5.55806 1.54304 5.64512 1.64222 5.69453 1.76093L7.18633 5.24179C7.22512 5.33111 7.24135 5.4286 7.23359 5.52567C7.22582 5.62274 7.1943 5.71641 7.1418 5.79843L5.90234 7.68359C5.84716 7.76885 5.81478 7.86685 5.80828 7.9682C5.80178 8.06956 5.82139 8.17088 5.86523 8.26249V8.26249Z" stroke="white" stroke-width="2" stroke-linecap="round" stroke-linejoin="round"/>
</svg>
