<svg width="13" height="11" viewBox="0 0 13 11" fill="none" xmlns="http://www.w3.org/2000/svg">
<path d="M0 2.91331L6.53359 2.62286L13 2.91331L6.50002 10.5012L0 2.91331Z" fill="#FFB04C"/>
<path d="M13 2.91331H0L2.07478 0H10.9253L13 2.91331Z" fill="#FFDB6C"/>
<path d="M10.9253 0V2.91331H13.0001L10.9253 0Z" fill="#FFC866"/>
<path d="M10.9137 2.93318L6.5 10.5012L12.9433 2.97949C12.9656 2.95347 12.9471 2.9133 12.9129 2.9133H10.9483C10.934 2.9133 10.9208 2.92087 10.9137 2.93318Z" fill="#F7A05E"/>
<path d="M2.07471 0H10.9252L6.49995 10.5012L2.07471 0Z" fill="#FFDB6C"/>
<path d="M9.69753 2.91331L10.9252 0H2.07471L3.30237 2.91331H9.69753Z" fill="#FFF2BB"/>
<path d="M3.30225 2.91331L6.49983 0L9.69741 2.91331H3.30225Z" fill="#FFEB8A"/>
</svg>
