<svg width="27" height="27" viewBox="0 0 27 27" fill="none" xmlns="http://www.w3.org/2000/svg">
<path d="M24.3519 11.6374L24.5754 11.414C24.9241 11.0642 25.12 10.5904 25.12 10.0965C25.12 9.6026 24.9241 9.12882 24.5754 8.77907L16.3448 0.543811C15.9957 0.195569 15.5227 0 15.0296 0C14.5365 0 14.0636 0.195569 13.7145 0.543811L0.544617 13.7184C0.195805 14.069 0 14.5435 0 15.0381C0 15.5327 0.195805 16.0072 0.544617 16.3579L4.65526 20.4686L24.3519 11.6374Z" fill="#50AD64"/>
<path d="M0.863281 16.6768L16.6681 0.871994L18.6419 2.84585L2.83713 18.6506L0.863281 16.6768Z" fill="#449956"/>
<path d="M25.1387 11.6375H6.5174C5.48898 11.6375 4.65527 12.4712 4.65527 13.4996V25.1379C4.65527 26.1663 5.48898 27 6.5174 27H25.1387C26.1671 27 27.0008 26.1663 27.0008 25.1379V13.4996C27.0008 12.4712 26.1671 11.6375 25.1387 11.6375Z" fill="#5FC77D"/>
<path d="M9.7763 13.9651H6.98311C6.726 13.9651 6.51758 14.1735 6.51758 14.4306V16.2927C6.51758 16.5499 6.726 16.7583 6.98311 16.7583H9.7763C10.0334 16.7583 10.2418 16.5499 10.2418 16.2927V14.4306C10.2418 14.1735 10.0334 13.9651 9.7763 13.9651Z" fill="#FDE05E"/>
<path d="M6.51729 20.017C6.39382 20.017 6.27541 19.968 6.18811 19.8807C6.1008 19.7934 6.05176 19.675 6.05176 19.5515V18.6204C6.05176 18.497 6.1008 18.3786 6.18811 18.2913C6.27541 18.204 6.39382 18.1549 6.51729 18.1549C6.64076 18.1549 6.75917 18.204 6.84647 18.2913C6.93377 18.3786 6.98282 18.497 6.98282 18.6204V19.5515C6.98282 19.675 6.93377 19.7934 6.84647 19.8807C6.75917 19.968 6.64076 20.017 6.51729 20.017ZM8.37942 20.017C8.25595 20.017 8.13754 19.968 8.05023 19.8807C7.96293 19.7934 7.91388 19.675 7.91388 19.5515V18.6204C7.91388 18.497 7.96293 18.3786 8.05023 18.2913C8.13754 18.204 8.25595 18.1549 8.37942 18.1549C8.50288 18.1549 8.62129 18.204 8.7086 18.2913C8.7959 18.3786 8.84495 18.497 8.84495 18.6204V19.5515C8.84495 19.675 8.7959 19.7934 8.7086 19.8807C8.62129 19.968 8.50288 20.017 8.37942 20.017ZM10.2415 20.017C10.1181 20.017 9.99967 19.968 9.91236 19.8807C9.82506 19.7934 9.77601 19.675 9.77601 19.5515V18.6204C9.77601 18.497 9.82506 18.3786 9.91236 18.2913C9.99967 18.204 10.1181 18.1549 10.2415 18.1549C10.365 18.1549 10.4834 18.204 10.5707 18.2913C10.658 18.3786 10.7071 18.497 10.7071 18.6204V19.5515C10.7071 19.675 10.658 19.7934 10.5707 19.8807C10.4834 19.968 10.365 20.017 10.2415 20.017ZM12.1037 20.017C11.9802 20.017 11.8618 19.968 11.7745 19.8807C11.6872 19.7934 11.6381 19.675 11.6381 19.5515V18.6204C11.6381 18.497 11.6872 18.3786 11.7745 18.2913C11.8618 18.204 11.9802 18.1549 12.1037 18.1549C12.2271 18.1549 12.3455 18.204 12.4328 18.2913C12.5202 18.3786 12.5692 18.497 12.5692 18.6204V19.5515C12.5692 19.675 12.5202 19.7934 12.4328 19.8807C12.3455 19.968 12.2271 20.017 12.1037 20.017ZM13.9658 20.017C13.8423 20.017 13.7239 19.968 13.6366 19.8807C13.5493 19.7934 13.5003 19.675 13.5003 19.5515V18.6204C13.5003 18.497 13.5493 18.3786 13.6366 18.2913C13.7239 18.204 13.8423 18.1549 13.9658 18.1549C14.0893 18.1549 14.2077 18.204 14.295 18.2913C14.3823 18.3786 14.4313 18.497 14.4313 18.6204V19.5515C14.4313 19.675 14.3823 19.7934 14.295 19.8807C14.2077 19.968 14.0893 20.017 13.9658 20.017ZM17.69 20.017C17.5666 20.017 17.4482 19.968 17.3609 19.8807C17.2736 19.7934 17.2245 19.675 17.2245 19.5515V18.6204C17.2245 18.497 17.2736 18.3786 17.3609 18.2913C17.4482 18.204 17.5666 18.1549 17.69 18.1549C17.8135 18.1549 17.9319 18.204 18.0192 18.2913C18.1065 18.3786 18.1556 18.497 18.1556 18.6204V19.5515C18.1556 19.675 18.1065 19.7934 18.0192 19.8807C17.9319 19.968 17.8135 20.017 17.69 20.017ZM19.5522 20.017C19.4287 20.017 19.3103 19.968 19.223 19.8807C19.1357 19.7934 19.0866 19.675 19.0866 19.5515V18.6204C19.0866 18.497 19.1357 18.3786 19.223 18.2913C19.3103 18.204 19.4287 18.1549 19.5522 18.1549C19.6756 18.1549 19.7941 18.204 19.8814 18.2913C19.9687 18.3786 20.0177 18.497 20.0177 18.6204V19.5515C20.0177 19.675 19.9687 19.7934 19.8814 19.8807C19.7941 19.968 19.6756 20.017 19.5522 20.017ZM21.4143 20.017C21.2908 20.017 21.1724 19.968 21.0851 19.8807C20.9978 19.7934 20.9488 19.675 20.9488 19.5515V18.6204C20.9488 18.497 20.9978 18.3786 21.0851 18.2913C21.1724 18.204 21.2908 18.1549 21.4143 18.1549C21.5378 18.1549 21.6562 18.204 21.7435 18.2913C21.8308 18.3786 21.8798 18.497 21.8798 18.6204V19.5515C21.8798 19.675 21.8308 19.7934 21.7435 19.8807C21.6562 19.968 21.5378 20.017 21.4143 20.017ZM23.2764 20.017C23.153 20.017 23.0345 19.968 22.9472 19.8807C22.8599 19.7934 22.8109 19.675 22.8109 19.5515V18.6204C22.8109 18.497 22.8599 18.3786 22.9472 18.2913C23.0345 18.204 23.153 18.1549 23.2764 18.1549C23.3999 18.1549 23.5183 18.204 23.6056 18.2913C23.6929 18.3786 23.742 18.497 23.742 18.6204V19.5515C23.742 19.675 23.6929 19.7934 23.6056 19.8807C23.5183 19.968 23.3999 20.017 23.2764 20.017Z" fill="#E1EFFF"/>
<path d="M8.38039 21.8791H6.51827C6.3948 21.8791 6.27639 21.8301 6.18909 21.7428C6.10178 21.6555 6.05273 21.537 6.05273 21.4136C6.05273 21.2901 6.10178 21.1717 6.18909 21.0844C6.27639 20.9971 6.3948 20.948 6.51827 20.948H8.38039C8.50386 20.948 8.62227 20.9971 8.70957 21.0844C8.79688 21.1717 8.84592 21.2901 8.84592 21.4136C8.84592 21.537 8.79688 21.6555 8.70957 21.7428C8.62227 21.8301 8.50386 21.8791 8.38039 21.8791ZM12.1046 21.8791H10.2425C10.1191 21.8791 10.0006 21.8301 9.91334 21.7428C9.82603 21.6555 9.77699 21.537 9.77699 21.4136C9.77699 21.2901 9.82603 21.1717 9.91334 21.0844C10.0006 20.9971 10.1191 20.948 10.2425 20.948H12.1046C12.2281 20.948 12.3465 20.9971 12.4338 21.0844C12.5211 21.1717 12.5702 21.2901 12.5702 21.4136C12.5702 21.537 12.5211 21.6555 12.4338 21.7428C12.3465 21.8301 12.2281 21.8791 12.1046 21.8791ZM8.38039 23.7412H6.51827C6.3948 23.7412 6.27639 23.6922 6.18909 23.6049C6.10178 23.5176 6.05273 23.3992 6.05273 23.2757C6.05273 23.1522 6.10178 23.0338 6.18909 22.9465C6.27639 22.8592 6.3948 22.8102 6.51827 22.8102H8.38039C8.50386 22.8102 8.62227 22.8592 8.70957 22.9465C8.79688 23.0338 8.84592 23.1522 8.84592 23.2757C8.84592 23.3992 8.79688 23.5176 8.70957 23.6049C8.62227 23.6922 8.50386 23.7412 8.38039 23.7412ZM12.1046 23.7412H10.2425C10.1191 23.7412 10.0006 23.6922 9.91334 23.6049C9.82603 23.5176 9.77699 23.3992 9.77699 23.2757C9.77699 23.1522 9.82603 23.0338 9.91334 22.9465C10.0006 22.8592 10.1191 22.8102 10.2425 22.8102H12.1046C12.2281 22.8102 12.3465 22.8592 12.4338 22.9465C12.5211 23.0338 12.5702 23.1522 12.5702 23.2757C12.5702 23.3992 12.5211 23.5176 12.4338 23.6049C12.3465 23.6922 12.2281 23.7412 12.1046 23.7412ZM15.8289 21.8791H13.9668C13.8433 21.8791 13.7249 21.8301 13.6376 21.7428C13.5503 21.6555 13.5012 21.537 13.5012 21.4136C13.5012 21.2901 13.5503 21.1717 13.6376 21.0844C13.7249 20.9971 13.8433 20.948 13.9668 20.948H15.8289C15.9524 20.948 16.0708 20.9971 16.1581 21.0844C16.2454 21.1717 16.2944 21.2901 16.2944 21.4136C16.2944 21.537 16.2454 21.6555 16.1581 21.7428C16.0708 21.8301 15.9524 21.8791 15.8289 21.8791Z" fill="#50AD64"/>
</svg>
