<svg width="22" height="31" viewBox="0 0 22 31" fill="none" xmlns="http://www.w3.org/2000/svg">
<path d="M11 0C9.39313 0 7.85208 0.641378 6.71586 1.78304C5.57963 2.9247 4.9413 4.47312 4.9413 6.08767V7.10228H4.10318C3.25306 7.10138 2.43535 7.42997 1.82029 8.01963C1.20522 8.60929 0.84019 9.41459 0.801194 10.2679L0.00346571 26.9582C-0.0169839 27.407 0.0532237 27.8554 0.209856 28.2762C0.366489 28.697 0.606303 29.0816 0.914843 29.4068C1.22338 29.732 1.59426 29.991 2.00512 30.1683C2.41598 30.3456 2.85831 30.4375 3.30546 30.4384H18.6945C19.1417 30.4375 19.584 30.3456 19.9949 30.1683C20.4057 29.991 20.7766 29.732 21.0852 29.4068C21.3937 29.0816 21.6335 28.697 21.7901 28.2762C21.9468 27.8554 22.017 27.407 21.9965 26.9582L21.1988 10.2679C21.1598 9.41459 20.7948 8.60929 20.1797 8.01963C19.5646 7.42997 18.7469 7.10138 17.8968 7.10228H17.0587V6.08767C17.0587 4.47312 16.4204 2.9247 15.2841 1.78304C14.1479 0.641378 12.6069 0 11 0ZM6.96087 6.08767C6.96087 5.0113 7.38642 3.97902 8.1439 3.21792C8.90139 2.45681 9.92876 2.02922 11 2.02922C12.0712 2.02922 13.0986 2.45681 13.8561 3.21792C14.6136 3.97902 15.0391 5.0113 15.0391 6.08767V7.10228H6.96087V6.08767ZM19.1792 10.3592L19.977 27.0597C19.9833 27.2342 19.9553 27.4083 19.8947 27.5719C19.8341 27.7355 19.7419 27.8856 19.6235 28.0134C19.5027 28.1382 19.3582 28.2374 19.1987 28.3053C19.0392 28.3733 18.8678 28.4086 18.6945 28.4091H3.30546C3.1322 28.4086 2.96079 28.3733 2.80127 28.3053C2.64176 28.2374 2.49733 28.1382 2.37646 28.0134C2.25808 27.8856 2.16594 27.7355 2.1053 27.5719C2.04466 27.4083 2.0167 27.2342 2.02303 27.0597L2.82076 10.3592C2.83634 10.0281 2.97831 9.71578 3.21714 9.48714C3.45597 9.25851 3.77331 9.13114 4.10318 9.13151H17.8968C18.2267 9.13114 18.544 9.25851 18.7829 9.48714C19.0217 9.71578 19.1637 10.0281 19.1792 10.3592Z" fill="black"/>
</svg>
