<svg width="20" height="24" viewBox="0 0 20 24" fill="none" xmlns="http://www.w3.org/2000/svg">
<path d="M18.4195 5.3023C18.4195 5.08026 18.3313 4.86731 18.1743 4.7103C18.0173 4.55329 17.8044 4.46509 17.5823 4.46509H1.9544C1.73236 4.46509 1.51941 4.55329 1.3624 4.7103C1.20539 4.86731 1.11719 5.08026 1.11719 5.3023V20.3721C1.11675 20.8486 1.21029 21.3206 1.39245 21.7609C1.57461 22.2013 1.84183 22.6014 2.1788 22.9384C2.51577 23.2754 2.91588 23.5426 3.35624 23.7247C3.79659 23.9069 4.26855 24.0004 4.7451 24H14.7916C15.2682 24.0004 15.7401 23.9069 16.1805 23.7247C16.6208 23.5426 17.021 23.2754 17.3579 22.9384C17.6949 22.6014 17.9621 22.2013 18.1443 21.7609C18.3264 21.3206 18.42 20.8486 18.4195 20.3721V5.3023ZM16.7451 6.13951V20.3721C16.7451 20.89 16.5397 21.3868 16.1725 21.7529C15.9913 21.9345 15.7761 22.0786 15.5391 22.1769C15.3022 22.2752 15.0481 22.3257 14.7916 22.3256H4.7451C4.22715 22.3256 3.7304 22.1202 3.36426 21.7529C3.18264 21.5718 3.03856 21.3565 2.94029 21.1196C2.84202 20.8826 2.79149 20.6286 2.79161 20.3721V6.13951H16.7451Z" fill="black"/>
<path d="M14.79 6.13954C15.012 6.13954 15.225 6.05134 15.382 5.89433C15.539 5.73732 15.6272 5.52437 15.6272 5.30233V3.06977C15.6272 2.256 15.3035 1.47461 14.7286 0.898606C14.1523 0.323493 13.3716 0.000341822 12.5574 0H6.97602C6.16225 0 5.38086 0.323721 4.80486 0.898606C4.22974 1.47485 3.90659 2.25564 3.90625 3.06977V5.30233C3.90625 5.76447 4.28132 6.13954 4.74346 6.13954H14.79ZM13.9528 4.46512H5.58067V3.06977C5.58126 2.69988 5.72846 2.34531 5.99001 2.08376C6.25156 1.82221 6.60613 1.67501 6.97602 1.67442H12.5574C12.9273 1.67501 13.2819 1.82221 13.5434 2.08376C13.805 2.34531 13.9522 2.69988 13.9528 3.06977V4.46512Z" fill="black"/>
<path d="M18.6977 4.46509H0.83721C0.615168 4.46509 0.40222 4.55329 0.245213 4.7103C0.0882057 4.86731 0 5.08026 0 5.3023C0 5.52434 0.0882057 5.73729 0.245213 5.8943C0.40222 6.0513 0.615168 6.13951 0.83721 6.13951H18.6977C18.9197 6.13951 19.1327 6.0513 19.2897 5.8943C19.4467 5.73729 19.5349 5.52434 19.5349 5.3023C19.5349 5.08026 19.4467 4.86731 19.2897 4.7103C19.1327 4.55329 18.9197 4.46509 18.6977 4.46509ZM6.13954 10.3256V18.1395C6.13954 18.3616 6.22775 18.5745 6.38475 18.7315C6.54176 18.8885 6.75471 18.9767 6.97675 18.9767C7.19879 18.9767 7.41174 18.8885 7.56875 18.7315C7.72576 18.5745 7.81396 18.3616 7.81396 18.1395V10.3256C7.81396 10.1035 7.72576 9.89057 7.56875 9.73356C7.41174 9.57655 7.19879 9.48835 6.97675 9.48835C6.75471 9.48835 6.54176 9.57655 6.38475 9.73356C6.22775 9.89057 6.13954 10.1035 6.13954 10.3256ZM11.7209 10.3256V18.1395C11.7209 18.3616 11.8091 18.5745 11.9662 18.7315C12.1232 18.8885 12.3361 18.9767 12.5582 18.9767C12.7802 18.9767 12.9931 18.8885 13.1501 18.7315C13.3072 18.5745 13.3954 18.3616 13.3954 18.1395V10.3256C13.3954 10.1035 13.3072 9.89057 13.1501 9.73356C12.9931 9.57655 12.7802 9.48835 12.5582 9.48835C12.3361 9.48835 12.1232 9.57655 11.9662 9.73356C11.8091 9.89057 11.7209 10.1035 11.7209 10.3256Z" fill="black"/>
</svg>
