<svg width="15" height="12" viewBox="0 0 15 12" fill="none" xmlns="http://www.w3.org/2000/svg">
<path d="M0.461426 3.75273L7.4976 3.43994L14.4615 3.75273L7.46145 11.9243L0.461426 3.75273Z" fill="#FFB04C"/>
<path d="M14.4615 3.75264H0.461426L2.6958 0.615234H12.2271L14.4615 3.75264Z" fill="#FFDB6C"/>
<path d="M12.2271 0.615234V3.75264H14.4614L12.2271 0.615234Z" fill="#FFC866"/>
<path d="M12.2146 3.77385L7.46143 11.924L14.4004 3.82373C14.4244 3.7957 14.4045 3.75244 14.3676 3.75244H12.2519C12.2365 3.75244 12.2223 3.76059 12.2146 3.77385Z" fill="#F7A05E"/>
<path d="M2.6958 0.615234H12.2271L7.46145 11.9242L2.6958 0.615234Z" fill="#FFDB6C"/>
<path d="M10.905 3.75264L12.2271 0.615234H2.6958L4.0179 3.75264H10.905Z" fill="#FFF2BB"/>
<path d="M4.01758 3.75264L7.46113 0.615234L10.9047 3.75264H4.01758Z" fill="#FFEB8A"/>
</svg>
