<svg width="13" height="11" viewBox="0 0 13 11" fill="none" xmlns="http://www.w3.org/2000/svg">
<path d="M0 2.91331L6.53359 2.62286L13 2.91331L6.50002 10.5012L0 2.91331Z" fill="#FFB04C"/>
<path d="M13 2.91331H0L2.07478 0H10.9253L13 2.91331Z" fill="#FFDB6C"/>
<path d="M10.9248 0V2.91331H12.9996L10.9248 0Z" fill="#FFC866"/>
<path d="M10.9137 2.93319L6.5 10.5012L12.9433 2.9795C12.9656 2.95347 12.9471 2.91331 12.9129 2.91331H10.9483C10.934 2.91331 10.9208 2.92087 10.9137 2.93319Z" fill="#F7A05E"/>
<path d="M2.0752 0H10.9257L6.50044 10.5012L2.0752 0Z" fill="#FFDB6C"/>
<path d="M9.69802 2.91331L10.9257 0H2.0752L3.30286 2.91331H9.69802Z" fill="#FFF2BB"/>
<path d="M3.30273 2.91331L6.50031 0L9.69789 2.91331H3.30273Z" fill="#FFEB8A"/>
</svg>
