<svg width="79" height="79" viewBox="0 0 79 79" fill="none" xmlns="http://www.w3.org/2000/svg">
<path d="M79 48.4043C79 46.2968 77.2849 44.5817 75.1774 44.5817H70.0806C67.9731 44.5817 66.2581 46.2968 66.2581 48.4043C66.2581 50.0633 67.3271 51.4649 68.8064 51.9924V52.2269C68.8064 52.9302 68.2343 53.5011 67.5323 53.5011H64.9839V45.675C67.1755 45.1054 68.8064 43.1279 68.8064 40.7591C68.8064 38.2082 66.9168 36.1096 64.4678 35.7388C66.1867 31.0995 63.1554 23.188 56.685 15.469L58.8104 13.3436C59.3277 13.5895 59.8845 13.7259 60.4465 13.7259C60.9486 13.7269 61.4459 13.6288 61.9099 13.437C62.374 13.2452 62.7955 12.9636 63.1503 12.6084C63.8658 11.8907 64.2675 10.9186 64.2675 9.90519C64.2675 8.89178 63.8658 7.9197 63.1503 7.20199L57.7439 1.79558C57.0262 1.08013 56.0541 0.678379 55.0407 0.678379C54.0273 0.678379 53.0552 1.08013 52.3375 1.79558C51.7824 2.35464 51.4139 3.07174 51.2825 3.84851C51.1511 4.62529 51.2633 5.42369 51.6036 6.13421L49.4782 8.25957C40.4251 0.673019 31.0992 -2.19137 27.111 1.79813C26.9926 1.91636 26.8986 2.05678 26.8345 2.21136C26.7704 2.36594 26.7374 2.53164 26.7374 2.69899C26.7374 2.86633 26.7704 3.03203 26.8345 3.18661C26.8986 3.34119 26.9926 3.48161 27.111 3.59984L59.1735 35.6624H15.2903C12.4795 35.6624 10.1935 37.9483 10.1935 40.7591C10.1935 43.1279 11.8245 45.1054 14.0161 45.675V53.5011H11.4677C10.7657 53.5011 10.1935 52.9302 10.1935 52.2269V51.9924C10.9367 51.7305 11.5806 51.245 12.0368 50.6026C12.4931 49.9601 12.7394 49.1923 12.7419 48.4043C12.7419 46.2968 11.0269 44.5817 8.91935 44.5817H3.82258C1.71506 44.5817 0 46.2968 0 48.4043C0 50.0633 1.06905 51.4649 2.54839 51.9924V53.5011C2.54839 57.7174 5.97724 61.1462 10.1935 61.1462H14.0161V70.0656C14.0161 74.9827 18.0171 78.985 22.9355 78.985H56.0645C60.9829 78.985 64.9839 74.9827 64.9839 70.0656V61.1462H68.8064C73.0228 61.1462 76.4516 57.7174 76.4516 53.5011V51.9924C77.1948 51.7305 77.8386 51.245 78.2949 50.6026C78.7512 49.9601 78.9975 49.1923 79 48.4043ZM54.1405 3.59984C54.3797 3.36089 54.7039 3.22667 55.042 3.22667C55.3801 3.22667 55.7043 3.36089 55.9435 3.59984L61.3486 9.00624C61.5875 9.24534 61.7217 9.56954 61.7216 9.90755C61.7214 10.2456 61.587 10.5697 61.348 10.8086C61.1089 11.0475 60.7847 11.1817 60.4467 11.1816C60.1087 11.1814 59.7845 11.047 59.5456 10.808L54.1405 5.40155C53.9016 5.16261 53.7674 4.83857 53.7674 4.5007C53.7674 4.16283 53.9016 3.83879 54.1405 3.59984ZM53.2396 8.10539L56.8443 11.7101L55.0018 13.5513C53.8529 12.299 52.6507 11.0968 51.3984 9.94787L53.2396 8.10539ZM51.4379 13.5105C58.4727 20.5453 64.0665 30.4942 62.0787 34.9628L29.9843 2.86973C34.4555 0.883261 44.4031 6.4757 51.4379 13.5105ZM12.7419 40.7591C12.7419 39.3537 13.8849 38.2108 15.2903 38.2108H63.7097C65.1151 38.2108 66.2581 39.3537 66.2581 40.7591C66.2581 42.1646 65.1151 43.3075 63.7097 43.3075H15.2903C13.8849 43.3075 12.7419 42.1646 12.7419 40.7591ZM3.82258 47.1301H8.91935C9.24743 47.1448 9.55721 47.2854 9.78418 47.5228C10.0112 47.7602 10.1378 48.0759 10.1378 48.4043C10.1378 48.7327 10.0112 49.0485 9.78418 49.2858C9.55721 49.5232 9.24743 49.6638 8.91935 49.6785H3.82258C3.4945 49.6638 3.18473 49.5232 2.95776 49.2858C2.73078 49.0485 2.60411 48.7327 2.60411 48.4043C2.60411 48.0759 2.73078 47.7602 2.95776 47.5228C3.18473 47.2854 3.4945 47.1448 3.82258 47.1301ZM10.1935 58.5979C7.38268 58.5979 5.09677 56.312 5.09677 53.5011V52.2269H7.64516C7.64516 54.3344 9.36023 56.0495 11.4677 56.0495H14.0161V58.5979H10.1935ZM56.0645 76.4366H22.9355C19.4225 76.4366 16.5645 73.5786 16.5645 70.0656V45.8559H62.4355V70.0656C62.4355 73.5786 59.5775 76.4366 56.0645 76.4366ZM68.8064 58.5979H64.9839V56.0495H67.5323C69.6398 56.0495 71.3548 54.3344 71.3548 52.2269H73.9032V53.5011C73.9032 56.312 71.6173 58.5979 68.8064 58.5979ZM75.1774 49.6785H70.0806C69.7526 49.6638 69.4428 49.5232 69.2158 49.2858C68.9888 49.0485 68.8622 48.7327 68.8622 48.4043C68.8622 48.0759 68.9888 47.7602 69.2158 47.5228C69.4428 47.2854 69.7526 47.1448 70.0806 47.1301H75.1774C75.5055 47.1448 75.8153 47.2854 76.0422 47.5228C76.2692 47.7602 76.3959 48.0759 76.3959 48.4043C76.3959 48.7327 76.2692 49.0485 76.0422 49.2858C75.8153 49.5232 75.5055 49.6638 75.1774 49.6785Z" fill="#274C5B"/>
<path d="M58.6121 70.0655C58.6121 71.4709 57.4691 72.6139 56.0637 72.6139V75.1622C58.8746 75.1622 61.1605 72.8763 61.1605 70.0655V52.2268H58.6121V70.0655ZM20.6819 25.0176C21.3139 25.6496 21.6605 26.488 21.6605 27.38C21.6605 28.2719 21.3139 29.1103 20.6819 29.7423L18.2112 32.213L20.0129 34.0147L22.4836 31.544C23.5972 30.4317 24.2089 28.9523 24.2089 27.38C24.2089 25.8076 23.5972 24.3283 22.4836 23.2159L21.3636 22.0959C20.7329 21.4652 20.3863 20.6268 20.3863 19.7348C20.3863 18.8429 20.7329 18.0045 21.3649 17.3725L23.8355 14.9018L22.0338 13.1001L19.5631 15.5708C18.4495 16.6831 17.8379 18.1625 17.8379 19.7348C17.8379 21.3072 18.4495 22.7865 19.5631 23.8989L20.6819 25.0176ZM35.3033 14.9018L33.5016 13.1001L31.0309 15.5708C29.9172 16.6831 29.3056 18.1625 29.3056 19.7348C29.3056 21.3072 29.9172 22.7865 31.0309 23.8989L32.1509 25.0189C32.7816 25.6496 33.1282 26.488 33.1282 27.38C33.1282 28.2719 32.7816 29.1103 32.1496 29.7423L29.679 32.213L31.4807 34.0147L33.9513 31.544C35.065 30.4317 35.6766 28.9523 35.6766 27.38C35.6766 25.8076 35.065 24.3283 33.9513 23.2159L32.8313 22.0959C32.2006 21.4652 31.854 20.6268 31.854 19.7348C31.854 18.8429 32.2006 18.0045 32.8326 17.3725L35.3033 14.9018Z" fill="#274C5B"/>
</svg>
