<svg width="19" height="19" viewBox="0 0 19 19" fill="none" xmlns="http://www.w3.org/2000/svg">
<path d="M15.0417 0.791504H3.95833C2.9089 0.792761 1.90282 1.2102 1.16076 1.95226C0.418698 2.69432 0.00125705 3.70041 0 4.74984L0 14.2498C0.00125705 15.2993 0.418698 16.3054 1.16076 17.0474C1.90282 17.7895 2.9089 18.2069 3.95833 18.2082H15.0417C16.0911 18.2069 17.0972 17.7895 17.8392 17.0474C18.5813 16.3054 18.9987 15.2993 19 14.2498V4.74984C18.9987 3.70041 18.5813 2.69432 17.8392 1.95226C17.0972 1.2102 16.0911 0.792761 15.0417 0.791504ZM3.95833 2.37484H15.0417C15.5157 2.37577 15.9786 2.51854 16.3708 2.78477C16.7631 3.05099 17.0666 3.4285 17.2425 3.86871L11.1799 9.93209C10.7338 10.3765 10.1297 10.626 9.5 10.626C8.8703 10.626 8.26624 10.3765 7.82008 9.93209L1.7575 3.86871C1.93337 3.4285 2.23694 3.05099 2.62916 2.78477C3.02138 2.51854 3.4843 2.37577 3.95833 2.37484ZM15.0417 16.6248H3.95833C3.32844 16.6248 2.72435 16.3746 2.27895 15.9292C1.83356 15.4838 1.58333 14.8797 1.58333 14.2498V5.93734L6.70067 11.0515C7.44375 11.7927 8.45045 12.209 9.5 12.209C10.5495 12.209 11.5563 11.7927 12.2993 11.0515L17.4167 5.93734V14.2498C17.4167 14.8797 17.1664 15.4838 16.721 15.9292C16.2756 16.3746 15.6716 16.6248 15.0417 16.6248Z" fill="white"/>
</svg>
