<svg width="20" height="23" viewBox="0 0 20 23" fill="none" xmlns="http://www.w3.org/2000/svg">
<path d="M9.63081 23L8.96274 22.4273C8.04175 21.6562 0 14.711 0 9.63081C0 4.31187 4.31187 0 9.63081 0C14.9498 0 19.2616 4.31187 19.2616 9.63081C19.2616 14.7111 11.2199 21.6562 10.3027 22.4312L9.63081 23ZM9.63081 2.08246C5.46396 2.08718 2.08723 5.46391 2.08251 9.63077C2.08251 12.8223 7.0301 17.9206 9.63081 20.2541C12.2316 17.9197 17.1791 12.8184 17.1791 9.63077C17.1744 5.46391 13.7977 2.08723 9.63081 2.08246Z" fill="white"/>
<path d="M9.63007 13.4481C7.52169 13.4481 5.8125 11.7389 5.8125 9.63056C5.8125 7.52218 7.52169 5.81299 9.63007 5.81299C11.7385 5.81299 13.4476 7.52218 13.4476 9.63056C13.4476 11.7389 11.7385 13.4481 9.63007 13.4481ZM9.63007 7.72173C8.57588 7.72173 7.72129 8.57632 7.72129 9.63052C7.72129 10.6847 8.57588 11.5393 9.63007 11.5393C10.6843 11.5393 11.5389 10.6847 11.5389 9.63052C11.5389 8.57632 10.6843 7.72173 9.63007 7.72173Z" fill="white"/>
</svg>
