<svg width="63" height="90" viewBox="0 0 63 90" fill="none" xmlns="http://www.w3.org/2000/svg">
<path d="M48.8766 87.3578H59.4812V15.8584H20.2937C19.947 15.8527 19.6165 15.7111 19.3734 15.464C19.1303 15.2168 18.9941 14.8841 18.9941 14.5374C18.9941 14.1907 19.1303 13.858 19.3734 13.6109C19.6165 13.3637 19.947 13.2221 20.2937 13.2164H50.0717L39.395 10.5474C39.2267 10.5053 39.0683 10.4305 38.9289 10.3273C38.7895 10.224 38.6718 10.0943 38.5826 9.94553C38.4933 9.79678 38.4343 9.6319 38.4087 9.46031C38.3832 9.28872 38.3917 9.11379 38.4338 8.94549C38.4758 8.77718 38.5506 8.6188 38.6539 8.47939C38.7572 8.33999 38.8869 8.22229 39.0356 8.13304C39.1844 8.04378 39.3493 7.9847 39.5209 7.95919C39.6925 7.93367 39.8674 7.94221 40.0357 7.98433L61.1225 13.2561C61.6985 13.3941 62.1286 13.9452 62.123 14.5376V88.6786C62.123 89.029 61.9838 89.365 61.7361 89.6127C61.4884 89.8604 61.1524 89.9996 60.802 89.9996H48.8766C48.7018 90.0016 48.5284 89.9689 48.3664 89.9035C48.2044 89.838 48.0569 89.741 47.9326 89.6182C47.8084 89.4953 47.7097 89.349 47.6423 89.1877C47.575 89.0265 47.5403 88.8535 47.5403 88.6787C47.5403 88.504 47.575 88.3309 47.6423 88.1697C47.7097 88.0084 47.8084 87.8621 47.9326 87.7393C48.0569 87.6164 48.2044 87.5194 48.3664 87.4539C48.5284 87.3885 48.7018 87.3558 48.8766 87.3578Z" fill="#274C5B"/>
<path d="M1.32033 13.2165H6.61236V1.3209C6.61234 1.12016 6.65809 0.922063 6.74611 0.741653C6.83413 0.561243 6.96212 0.403269 7.12034 0.279735C7.27856 0.1562 7.46286 0.0703545 7.65923 0.0287207C7.8556 -0.012913 8.05888 -0.00923957 8.25362 0.039462L34.9137 6.70416C35.0829 6.74532 35.2424 6.81955 35.3828 6.92257C35.5233 7.02559 35.642 7.15538 35.7321 7.30445C35.8222 7.45353 35.8819 7.61895 35.9078 7.7912C35.9337 7.96345 35.9253 8.13912 35.8831 8.30811C35.8408 8.4771 35.7656 8.63606 35.6617 8.77586C35.5577 8.91565 35.4272 9.0335 35.2775 9.12265C35.1279 9.21179 34.9621 9.27045 34.7897 9.29526C34.6173 9.32007 34.4416 9.31054 34.2729 9.26721L9.25416 3.01296V13.2168H15.0099C15.3565 13.2225 15.687 13.3641 15.9301 13.6112C16.1733 13.8584 16.3095 14.1911 16.3095 14.5378C16.3095 14.8845 16.1733 15.2172 15.9301 15.4644C15.687 15.7115 15.3565 15.8531 15.0099 15.8588H2.64114V87.358H43.593C43.9396 87.3637 44.2701 87.5053 44.5132 87.7525C44.7563 87.9996 44.8926 88.3324 44.8926 88.679C44.8926 89.0257 44.7563 89.3584 44.5132 89.6056C44.2701 89.8527 43.9396 89.9943 43.593 90H1.32033C0.96998 90 0.633983 89.8608 0.38625 89.6131C0.138516 89.3654 -0.000663757 89.0294 -0.000663757 88.679V14.5374C-0.000617149 14.1871 0.138576 13.8511 0.386299 13.6034C0.634022 13.3557 0.969995 13.2165 1.32033 13.2165Z" fill="#274C5B"/>
<path d="M39.7144 44.6843C38.6752 44.6843 37.7243 44.4473 36.9125 43.9896L32.5032 48.3989L41.3462 57.2418C41.4689 57.3645 41.5662 57.5101 41.6326 57.6704C41.6989 57.8306 41.7331 58.0024 41.7331 58.1758C41.7331 58.3493 41.6989 58.5211 41.6326 58.6813C41.5662 58.8416 41.4689 58.9872 41.3462 59.1098C41.2236 59.2325 41.0779 59.3298 40.9177 59.3962C40.7574 59.4626 40.5857 59.4968 40.4122 59.4968C40.2387 59.4968 40.067 59.4626 39.9067 59.3962C39.7465 59.3298 39.6008 59.2325 39.4782 59.1098L30.6352 50.2669L21.7923 59.1098C21.6696 59.2325 21.524 59.3298 21.3637 59.3962C21.2035 59.4626 21.0317 59.4968 20.8582 59.4968C20.6848 59.4968 20.513 59.4626 20.3528 59.3962C20.1925 59.3298 20.0469 59.2325 19.9242 59.1098C19.8016 58.9872 19.7043 58.8416 19.6379 58.6813C19.5715 58.5211 19.5373 58.3493 19.5373 58.1758C19.5373 58.0024 19.5715 57.8306 19.6379 57.6704C19.7043 57.5101 19.8016 57.3645 19.9242 57.2418L28.7672 48.3989L25.1258 44.7574C24.3581 45.2088 23.4921 45.4428 22.5631 45.4428C22.4824 45.4428 22.401 45.441 22.3194 45.4375C17.6946 45.2376 12.7306 39.4856 12.1799 38.8305C11.9544 38.5623 11.8446 38.2156 11.8748 37.8666C11.9049 37.5176 12.0725 37.1948 12.3406 36.9693C12.6087 36.7438 12.9554 36.634 13.3044 36.6642C13.6535 36.6943 13.9762 36.8619 14.2017 37.13C15.4942 38.664 19.4932 42.6728 22.4354 42.7983C22.6622 42.8083 22.8893 42.7897 23.1115 42.7431L15.77 35.4017C15.6474 35.279 15.5501 35.1334 15.4837 34.9732C15.4173 34.8129 15.3831 34.6412 15.3831 34.4677C15.3831 34.2942 15.4173 34.1225 15.4837 33.9622C15.5501 33.8019 15.6474 33.6563 15.77 33.5337C15.8927 33.411 16.0383 33.3137 16.1986 33.2473C16.3588 33.1809 16.5306 33.1468 16.704 33.1468C16.8775 33.1468 17.0493 33.1809 17.2095 33.2473C17.3698 33.3137 17.5154 33.411 17.638 33.5337L24.98 40.8757C25.0267 40.6533 25.045 40.426 25.0345 40.1991C24.909 37.2569 20.9002 33.2581 19.3667 31.9659C19.1008 31.7398 18.9352 31.4176 18.9061 31.0698C18.877 30.722 18.9868 30.3768 19.2113 30.1097C19.4359 29.8425 19.7571 29.6751 20.1047 29.6439C20.4524 29.6128 20.7982 29.7205 21.0666 29.9435C21.7218 30.4943 27.474 35.4585 27.6737 40.0832C27.7178 41.1045 27.4851 42.0558 26.9943 42.8901L30.635 46.5309L35.0445 42.1214C34.4148 41.0049 34.2037 39.6243 34.4505 38.1143C34.7376 36.3579 35.61 34.5711 36.9074 33.0835C38.516 31.2387 40.5295 30.1842 42.5774 30.1142C44.3058 30.0564 45.926 30.6889 47.1357 31.8986C48.3454 33.1083 48.9791 34.7272 48.92 36.4569C48.8501 38.5047 47.7956 40.5183 45.9509 42.1269C44.4631 43.4243 42.6763 44.2967 40.9199 44.5837C40.5074 44.6511 40.1048 44.6843 39.7144 44.6843ZM46.2797 36.3667C46.3134 35.3766 45.9541 34.453 45.2677 33.7666C44.6108 33.1099 43.7372 32.7525 42.7955 32.7525C42.753 32.7525 42.7104 32.7532 42.6677 32.7546C41.3594 32.7993 40.021 33.5328 38.8988 34.8199C36.9271 37.0813 36.3975 39.9955 37.7183 41.3163C39.0394 42.637 41.9535 42.1075 44.2148 40.1358C45.5016 39.0134 46.235 37.6751 46.2797 36.3667ZM17.6509 69.3028C17.3043 69.2972 16.9738 69.1555 16.7306 68.9084C16.4875 68.6613 16.3513 68.3285 16.3513 67.9818C16.3513 67.6352 16.4875 67.3024 16.7306 67.0553C16.9738 66.8082 17.3043 66.6665 17.6509 66.6608H44.4696C44.8163 66.6665 45.1468 66.8082 45.3899 67.0553C45.633 67.3024 45.7693 67.6352 45.7693 67.9818C45.7693 68.3285 45.633 68.6613 45.3899 68.9084C45.1468 69.1555 44.8163 69.2972 44.4696 69.3028H17.6509ZM39.7143 73.6671C40.0609 73.6727 40.3914 73.8144 40.6345 74.0615C40.8776 74.3086 41.0139 74.6414 41.0139 74.9881C41.0139 75.3347 40.8776 75.6675 40.6345 75.9146C40.3914 76.1617 40.0609 76.3034 39.7143 76.309H22.4061C22.2326 76.309 22.0608 76.2749 21.9006 76.2085C21.7403 76.1421 21.5947 76.0448 21.472 75.9221C21.3493 75.7995 21.252 75.6538 21.1856 75.4936C21.1193 75.3333 21.0851 75.1615 21.0851 74.9881C21.0851 74.8146 21.1193 74.6428 21.1856 74.4825C21.252 74.3223 21.3493 74.1767 21.472 74.054C21.5947 73.9313 21.7403 73.834 21.9006 73.7676C22.0608 73.7012 22.2326 73.6671 22.4061 73.6671H39.7143Z" fill="#274C5B"/>
</svg>
