<svg width="24" height="24" viewBox="0 0 24 24" fill="none" xmlns="http://www.w3.org/2000/svg">
<g clip-path="url(#clip0_26_1799)">
<path d="M12.9998 1.0001C12.9998 0.734885 13.1052 0.480531 13.2927 0.292995C13.4803 0.105458 13.7346 0.000101607 13.9998 0.000101607C16.6511 0.0030132 19.193 1.05752 21.0677 2.93225C22.9424 4.80698 23.9969 7.34883 23.9998 10.0001C23.9998 10.2653 23.8945 10.5197 23.7069 10.7072C23.5194 10.8947 23.2651 11.0001 22.9998 11.0001C22.7346 11.0001 22.4803 10.8947 22.2927 10.7072C22.1052 10.5197 21.9998 10.2653 21.9998 10.0001C21.9975 7.8791 21.1538 5.84565 19.6541 4.34588C18.1543 2.8461 16.1208 2.00248 13.9998 2.0001C13.7346 2.0001 13.4803 1.89474 13.2927 1.70721C13.1052 1.51967 12.9998 1.26532 12.9998 1.0001ZM13.9998 6.0001C15.0607 6.0001 16.0781 6.42153 16.8283 7.17168C17.5784 7.92182 17.9998 8.93924 17.9998 10.0001C17.9998 10.2653 18.1052 10.5197 18.2927 10.7072C18.4803 10.8947 18.7346 11.0001 18.9998 11.0001C19.2651 11.0001 19.5194 10.8947 19.7069 10.7072C19.8945 10.5197 19.9998 10.2653 19.9998 10.0001C19.9983 8.40929 19.3656 6.88409 18.2407 5.75922C17.1159 4.63434 15.5907 4.00169 13.9998 4.0001C13.7346 4.0001 13.4803 4.10546 13.2927 4.293C13.1052 4.48053 12.9998 4.73489 12.9998 5.0001C12.9998 5.26532 13.1052 5.51967 13.2927 5.70721C13.4803 5.89475 13.7346 6.0001 13.9998 6.0001ZM23.0928 16.7391C23.6723 17.3202 23.9978 18.1074 23.9978 18.9281C23.9978 19.7488 23.6723 20.536 23.0928 21.1171L22.1828 22.1661C13.9928 30.0071 -5.93713 10.0821 1.78286 1.8661L2.93286 0.866102C3.51463 0.302779 4.29479 -0.00884932 5.10456 -0.00136355C5.91433 0.00612221 6.6886 0.33212 7.25986 0.906102C7.29086 0.937102 9.14385 3.3441 9.14385 3.3441C9.69368 3.92173 9.99976 4.68903 9.99845 5.48651C9.99715 6.28398 9.68857 7.05028 9.13685 7.6261L7.97885 9.0821C8.6197 10.6392 9.56192 12.0543 10.7514 13.2462C11.9408 14.438 13.354 15.3831 14.9098 16.0271L16.3748 14.8621C16.9507 14.3108 17.7169 14.0026 18.5141 14.0015C19.3114 14.0004 20.0784 14.3064 20.6558 14.8561C20.6558 14.8561 23.0618 16.7081 23.0928 16.7391ZM21.7168 18.1931C21.7168 18.1931 19.3238 16.3521 19.2928 16.3211C19.0868 16.1168 18.8085 16.0022 18.5183 16.0022C18.2282 16.0022 17.9499 16.1168 17.7438 16.3211C17.7168 16.3491 15.6998 17.9561 15.6998 17.9561C15.5639 18.0643 15.4022 18.1352 15.2305 18.1619C15.0588 18.1885 14.8832 18.17 14.7208 18.1081C12.7053 17.3577 10.8746 16.1828 9.35269 14.6632C7.83079 13.1435 6.65326 11.3145 5.89986 9.3001C5.83306 9.13556 5.81128 8.95619 5.83676 8.78044C5.86224 8.60469 5.93407 8.4389 6.04486 8.3001C6.04486 8.3001 7.65185 6.2821 7.67885 6.2561C7.88312 6.05009 7.99773 5.77172 7.99773 5.4816C7.99773 5.19149 7.88312 4.91312 7.67885 4.7071C7.64785 4.6771 5.80686 2.2821 5.80686 2.2821C5.59776 2.09461 5.32486 1.9942 5.04411 2.00145C4.76335 2.0087 4.496 2.12306 4.29686 2.3211L3.14686 3.3211C-2.49513 10.1051 14.7758 26.4181 20.7208 20.8001L21.6318 19.7501C21.8453 19.5524 21.9735 19.2794 21.9894 18.9888C22.0053 18.6982 21.9075 18.4129 21.7168 18.1931Z" fill="#838282"/>
</g>
<defs>
<clipPath id="clip0_26_1799">
<rect width="24" height="24" fill="white"/>
</clipPath>
</defs>
</svg>
