<svg width="16" height="16" viewBox="0 0 16 16" fill="none" xmlns="http://www.w3.org/2000/svg">
<path d="M3.23008 10.6357C4.8082 12.5222 6.70791 14.0075 8.87617 15.0584C9.7017 15.4496 10.8057 15.9138 12.0357 15.9934C12.112 15.9967 12.1849 16 12.2612 16C13.0867 16 13.7498 15.7149 14.2902 15.1281C14.2935 15.1247 14.3001 15.1181 14.3034 15.1115C14.4957 14.8794 14.7145 14.6705 14.9433 14.4484C15.0991 14.2992 15.2583 14.1434 15.4108 13.9843C16.1169 13.2482 16.1169 12.3133 15.4041 11.6005L13.4116 9.60796C13.0734 9.25653 12.669 9.07087 12.2446 9.07087C11.8202 9.07087 11.4124 9.25653 11.0643 9.60464L9.87741 10.7915C9.768 10.7286 9.65528 10.6722 9.54919 10.6191C9.41657 10.5528 9.2939 10.4898 9.1845 10.4202C8.10368 9.73394 7.12233 8.83879 6.18408 7.68835C5.70998 7.08827 5.39171 6.58433 5.16958 6.07045C5.48122 5.78864 5.77298 5.49358 6.05478 5.20514C6.15424 5.10236 6.25702 4.99959 6.3598 4.89681C6.71786 4.53875 6.91015 4.12433 6.91015 3.70327C6.91015 3.28222 6.72117 2.8678 6.3598 2.50974L5.37182 1.52176C5.25578 1.40572 5.14637 1.293 5.03365 1.17696C4.81483 0.951513 4.58607 0.719436 4.36063 0.510568C4.01914 0.175715 3.61798 0 3.19361 0C2.77256 0 2.36809 0.175715 2.01334 0.513883L0.773391 1.75383C0.3225 2.20472 0.0672156 2.75176 0.0141696 3.385C-0.0488225 4.17737 0.097054 5.01948 0.475007 6.0373C1.0552 7.6121 1.93046 9.07418 3.23008 10.6357ZM0.823121 3.45462C0.862906 3.01368 1.03199 2.64567 1.35027 2.32739L2.58359 1.09407C2.77588 0.908413 2.98806 0.812267 3.19361 0.812267C3.39585 0.812267 3.60141 0.908413 3.79038 1.1007C4.01251 1.30626 4.22138 1.52176 4.44683 1.75052C4.55955 1.86656 4.67559 1.98259 4.79163 2.10195L5.77961 3.08993C5.98516 3.29548 6.09125 3.50435 6.09125 3.7099C6.09125 3.91546 5.98516 4.12433 5.77961 4.32988C5.67683 4.43266 5.57405 4.53875 5.47128 4.64152C5.16295 4.95317 4.87451 5.24824 4.55623 5.53005L4.53966 5.54662C4.26448 5.8218 4.30758 6.08371 4.37389 6.28264C4.3772 6.29258 4.38052 6.29921 4.38383 6.30916C4.63912 6.9225 4.99386 7.50601 5.54753 8.20224C6.54214 9.42893 7.5898 10.3804 8.74355 11.1131C8.88611 11.206 9.03862 11.2789 9.18118 11.3518C9.3138 11.4182 9.43646 11.4811 9.54587 11.5508C9.55913 11.5574 9.56908 11.564 9.58234 11.5707C9.69175 11.627 9.79784 11.6535 9.90393 11.6535C10.1692 11.6535 10.3416 11.4845 10.3979 11.4281L11.6379 10.1881C11.8302 9.99586 12.039 9.89308 12.2446 9.89308C12.4966 9.89308 12.7021 10.0489 12.8314 10.1881L14.8306 12.184C15.2284 12.5818 15.2251 13.0128 14.8206 13.4339C14.6814 13.5831 14.5355 13.7257 14.3797 13.8748C14.1476 14.1003 13.9056 14.3324 13.6868 14.5943C13.3055 15.0054 12.8513 15.1977 12.2645 15.1977C12.2081 15.1977 12.1484 15.1944 12.0921 15.191C11.0046 15.1214 9.99345 14.6971 9.23423 14.3357C7.17206 13.3378 5.36187 11.9221 3.86 10.1252C2.62337 8.63655 1.79121 7.25072 1.24086 5.76544C0.899375 4.85371 0.770075 4.12101 0.823121 3.45462Z" fill="black"/>
</svg>
