<svg width="26" height="26" viewBox="0 0 26 26" fill="none" xmlns="http://www.w3.org/2000/svg">
<path d="M15.9873 0.347897C13.4851 -0.242923 10.8638 -0.0784952 8.455 0.82039C6.04618 1.71927 3.958 3.31225 2.45449 5.39788C0.950989 7.48351 0.0996855 9.96813 0.00822971 12.5376C-0.0832261 15.107 0.589273 17.6459 1.94069 19.8331C3.29211 22.0204 5.26175 23.7578 7.60056 24.8256C9.93937 25.8935 12.5423 26.2439 15.0803 25.8325C17.6182 25.421 19.9771 24.2663 21.8588 22.5143C23.7405 20.7622 25.0604 18.4915 25.6516 15.9894C26.0442 14.3278 26.1057 12.6051 25.8325 10.9197C25.5593 9.23438 24.9567 7.61935 24.0593 6.16687C23.1619 4.71439 21.9871 3.45292 20.6021 2.45449C19.2171 1.45607 17.649 0.740242 15.9873 0.347897Z" fill="#5F259F"/>
<path d="M18.899 9.6078C18.8919 9.36064 18.7899 9.12572 18.6141 8.95187C18.4383 8.77803 18.2022 8.67864 17.955 8.67439H16.2109L12.217 4.08777C12.0301 3.87785 11.7874 3.72539 11.5172 3.64819C11.247 3.57099 10.9604 3.57223 10.6909 3.65176L9.30667 4.08777C9.25748 4.10445 9.21306 4.13279 9.1772 4.17037C9.14135 4.20794 9.11513 4.25364 9.10078 4.30356C9.08642 4.35348 9.08437 4.40613 9.09479 4.45701C9.10522 4.50789 9.1278 4.55549 9.16062 4.59575L13.5229 8.73577H6.91494C6.86694 8.73364 6.81903 8.74157 6.77427 8.75903C6.72951 8.7765 6.6889 8.80312 6.65502 8.83719C6.62115 8.87127 6.59477 8.91204 6.57756 8.9569C6.56036 9.00176 6.55272 9.04972 6.55512 9.0977V9.82369C6.55947 10.0727 6.66032 10.3103 6.83642 10.4864C7.01252 10.6625 7.25011 10.7633 7.49911 10.7677H8.51718V14.2558C8.51718 16.8698 9.89719 18.3958 12.2212 18.3958C12.9171 18.4172 13.6099 18.2932 14.2552 18.0318V20.36C14.2532 20.5131 14.2819 20.6651 14.3396 20.807C14.3973 20.9489 14.4828 21.0778 14.5911 21.1861C14.6994 21.2944 14.8283 21.3799 14.9702 21.4376C15.1121 21.4953 15.2641 21.524 15.4172 21.522H16.4332C16.5462 21.5141 16.6526 21.4656 16.7327 21.3855C16.8128 21.3054 16.8613 21.199 16.8692 21.086V10.6978H18.5349C18.5835 10.7006 18.632 10.6931 18.6774 10.6758C18.7229 10.6584 18.7641 10.6317 18.7985 10.5973C18.8329 10.563 18.8596 10.5217 18.8769 10.4763C18.8942 10.4309 18.9017 10.3823 18.899 10.3338V9.6078ZM14.2425 15.8538C13.7844 16.0542 13.2884 16.1531 12.7884 16.1438C11.6264 16.1438 11.0465 15.5638 11.0465 14.2558V10.7698H14.2425V15.8496V15.8538Z" fill="white"/>
</svg>
