<svg width="7" height="7" viewBox="0 0 7 7" fill="none" xmlns="http://www.w3.org/2000/svg">
<path d="M0.507968 7.0002C0.377928 7.0002 0.247888 6.95062 0.148733 6.85146C-0.0495777 6.65315 -0.0495777 6.33151 0.148733 6.13299L6.1328 0.149134C6.33111 -0.0491771 6.65275 -0.0491771 6.85127 0.149134C7.04958 0.347444 7.04958 0.669089 6.85127 0.867603L0.866999 6.85146C0.81991 6.89869 0.763948 6.93615 0.702332 6.96167C0.640716 6.9872 0.574662 7.00029 0.507968 7.0002Z" fill="white"/>
<path d="M6.49183 7C6.36179 7 6.23175 6.95042 6.13259 6.85127L0.148733 0.867203C-0.0495777 0.668892 -0.0495777 0.347247 0.148733 0.148733C0.347044 -0.0495777 0.668689 -0.0495777 0.867203 0.148733L6.85127 6.1328C7.04958 6.33111 7.04958 6.65275 6.85127 6.85127C6.80409 6.89849 6.74805 6.93593 6.68637 6.96146C6.62469 6.98698 6.55858 7.00008 6.49183 7Z" fill="white"/>
</svg>
