<svg width="13" height="11" viewBox="0 0 13 11" fill="none" xmlns="http://www.w3.org/2000/svg">
<path fill-rule="evenodd" clip-rule="evenodd" d="M0 5.41667C0 5.27301 0.0570684 5.13523 0.158651 5.03365C0.260233 4.93207 0.398008 4.875 0.541667 4.875H12.4583C12.602 4.875 12.7398 4.93207 12.8414 5.03365C12.9429 5.13523 13 5.27301 13 5.41667C13 5.56033 12.9429 5.6981 12.8414 5.79968C12.7398 5.90127 12.602 5.95833 12.4583 5.95833H0.541667C0.398008 5.95833 0.260233 5.90127 0.158651 5.79968C0.0570684 5.6981 0 5.56033 0 5.41667Z" fill="#374957"/>
<path fill-rule="evenodd" clip-rule="evenodd" d="M7.20058 0.158593C7.30216 0.0570459 7.43991 0 7.58354 0C7.72717 0 7.86492 0.0570459 7.9665 0.158593L12.8415 5.03359C12.943 5.13517 13.0001 5.27292 13.0001 5.41655C13.0001 5.56018 12.943 5.69793 12.8415 5.79951L7.9665 10.6745C7.86434 10.7732 7.72752 10.8278 7.58549 10.8265C7.44347 10.8253 7.30761 10.7683 7.20718 10.6679C7.10675 10.5675 7.04979 10.4316 7.04855 10.2896C7.04732 10.1476 7.10192 10.0108 7.20058 9.90859L11.6926 5.41655L7.20058 0.924509C7.09904 0.822932 7.04199 0.685182 7.04199 0.541551C7.04199 0.39792 7.09904 0.26017 7.20058 0.158593Z" fill="#374957"/>
</svg>
