<svg width="18" height="23" viewBox="0 0 18 23" fill="none" xmlns="http://www.w3.org/2000/svg">
<path fill-rule="evenodd" clip-rule="evenodd" d="M8.09241 2.57404C7.91961 2.55712 7.69911 2.55557 7.07143 2.55557H1.28575C0.575666 2.55557 3.91607e-05 1.98348 3.91607e-05 1.27779C3.91607e-05 0.572087 0.575666 1.27951e-05 1.28575 1.27951e-05H7.07143C7.09663 1.27951e-05 7.12144 1.27778e-05 7.14587 0C7.1937 0 7.24011 1.7353e-08 7.28524 1.27951e-05H16.7143C17.4244 1.27951e-05 18 0.572087 18 1.27779C18 1.98348 17.4244 2.55557 16.7143 2.55557H12.8574C13.4181 3.29787 13.8199 4.16609 14.0133 5.11113H16.7143C17.4244 5.11113 18 5.68321 18 6.38891C18 7.0946 17.4244 7.66669 16.7143 7.66669H14.1408C14.1378 7.90732 14.1303 8.10746 14.112 8.29292C13.8113 11.3262 11.3966 13.726 8.34441 14.0248C8.02903 14.0557 7.67122 14.0557 7.14587 14.0556C7.12144 14.0556 7.09663 14.0556 7.07143 14.0556H4.38974L11.1948 20.8187C11.697 21.3177 11.697 22.1268 11.1948 22.6258C10.6928 23.1247 9.87866 23.1247 9.37659 22.6258L0.376612 13.6813C0.00889781 13.3159 -0.101095 12.7663 0.0979076 12.2888C0.29691 11.8114 0.765733 11.5 1.28575 11.5H7.07143C7.69911 11.5 7.91961 11.4985 8.09241 11.4816C9.92366 11.3023 11.3725 9.86241 11.5529 8.04242C11.562 7.94976 11.5668 7.84323 11.5691 7.66669H2.57147C1.86138 7.66669 1.28575 7.0946 1.28575 6.38891C1.28575 5.68321 1.86138 5.11113 2.57147 5.11113H11.3513C10.8621 3.73459 9.60827 2.72241 8.09241 2.57404Z" fill="black"/>
</svg>
