<svg width="16" height="10" viewBox="0 0 16 10" fill="none" xmlns="http://www.w3.org/2000/svg">
<path d="M12.3717 8.20312H2.73663C2.58942 8.20312 2.4519 8.13038 2.36902 8.00877C1.09778 6.14456 1.00026 2.5585 0.992879 2.02617C0.992418 2.0053 0.992188 1.98421 0.992188 1.96323C0.992188 1.71781 1.19092 1.51873 1.43634 1.51827H1.43726C1.68222 1.51827 1.88129 1.71643 1.88222 1.9615C1.88222 1.9645 1.88233 1.99078 1.88337 2.03735C1.92256 3.3034 2.96475 4.32116 4.24014 4.32116C5.54032 4.32116 6.59807 3.2634 6.59807 1.96323C6.59807 1.71747 6.79738 1.51827 7.04303 1.51827H8.06516C8.31093 1.51827 8.51012 1.71747 8.51012 1.96323C8.51012 3.2634 9.56799 4.32116 10.8682 4.32116C12.1447 4.32116 13.1876 3.30156 13.2251 2.03389C13.2259 1.9894 13.2261 1.9645 13.2261 1.96162C13.227 1.71643 13.426 1.51827 13.671 1.51827H13.6719C13.9173 1.51873 14.116 1.71781 14.116 1.96323C14.116 1.98432 14.1158 2.0053 14.1154 2.02628C14.1079 2.5585 14.0104 6.14467 12.7393 8.00888C12.6564 8.13038 12.5188 8.20312 12.3717 8.20312Z" fill="#FFF780"/>
<path d="M13.6723 1.51827C13.672 1.51827 13.6718 1.51827 13.6715 1.51827C13.4265 1.51827 13.2274 1.71643 13.2265 1.9615C13.2265 1.9645 13.2264 1.9894 13.2255 2.03389C13.188 3.30144 12.1451 4.32116 10.8686 4.32116C9.56841 4.32116 8.51065 3.2634 8.51065 1.96323C8.51065 1.71747 8.31135 1.51827 8.0657 1.51827H7.55469V8.203H12.3721C12.5193 8.203 12.6568 8.13027 12.7397 8.00877C14.0109 6.14456 14.1085 2.55839 14.1158 2.02617C14.1163 2.0053 14.1165 1.98421 14.1165 1.96323C14.1164 1.71781 13.9177 1.51873 13.6723 1.51827Z" fill="#FFC02E"/>
<path d="M7.55488 0C6.76214 0 6.11719 0.644957 6.11719 1.4377C6.11719 2.23043 6.76214 2.87528 7.55488 2.87528C8.34762 2.87528 8.99258 2.23043 8.99258 1.4377C8.99258 0.644957 8.34762 0 7.55488 0Z" fill="#FFC02E"/>
<path d="M7.55469 0V2.87539C8.34743 2.87528 8.99227 2.23043 8.99227 1.4377C8.99227 0.644957 8.34731 0.000115274 7.55469 0Z" fill="#FFA73B"/>
<path d="M1.4377 1.1095C0.644957 1.1095 0 1.75446 0 2.5472C0 3.33994 0.644957 3.9849 1.4377 3.9849C2.23043 3.9849 2.87528 3.33994 2.87528 2.5472C2.87528 1.75446 2.23043 1.1095 1.4377 1.1095Z" fill="#FFC02E"/>
<path d="M13.671 1.1095C12.8782 1.1095 12.2334 1.75446 12.2334 2.5472C12.2334 3.33982 12.8782 3.98478 13.671 3.98478C14.4637 3.98478 15.1087 3.33982 15.1087 2.5472C15.1087 1.75446 14.4637 1.1095 13.671 1.1095Z" fill="#FFA73B"/>
<path d="M12.372 9.66284H2.73695C2.49119 9.66284 2.29199 9.46364 2.29199 9.21788V7.89096H12.817V9.21788C12.817 9.46364 12.6178 9.66284 12.372 9.66284Z" fill="#FFC02E"/>
<path d="M7.55469 9.66284H12.3721C12.6179 9.66284 12.8171 9.46364 12.8171 9.21788V7.89096H7.55469V9.66284Z" fill="#FFA73B"/>
</svg>
