<svg width="63" height="63" viewBox="0 0 63 63" fill="none" xmlns="http://www.w3.org/2000/svg">
<path d="M53.8138 0.0236384C53.5204 -0.0158813 53.222 0.00810128 52.9387 0.0939621C52.6554 0.179823 52.3938 0.325557 52.1718 0.521297C51.9442 0.719648 51.7617 0.964401 51.6366 1.23912C51.5115 1.51383 51.4466 1.81214 51.4463 2.11401V28.4773C50.3718 27.4004 49.0887 26.5543 47.6756 25.9909C46.2625 25.4274 44.7493 25.1585 43.2286 25.2005C38.7224 25.2005 35.1443 28.2946 33.5978 29.8915C32.0512 28.2946 28.4731 25.2005 23.9669 25.2005C22.4462 25.1585 20.933 25.4274 19.5199 25.9909C18.1069 26.5543 16.8237 27.4004 15.7493 28.4773V24.1506C17.6978 24.1484 19.5658 23.3734 20.9436 21.9956C22.3214 20.6178 23.0964 18.7497 23.0986 16.8012V3.15238C23.102 2.74028 23.0223 2.33172 22.8643 1.95111C22.7062 1.57049 22.4732 1.22561 22.1789 0.937062C21.7963 0.546207 21.3177 0.262848 20.791 0.115422C20.2643 -0.0320046 19.7082 -0.038312 19.1783 0.0971323C18.4849 0.28496 17.8742 0.699107 17.4431 1.27378C17.0121 1.84845 16.7854 2.55068 16.7992 3.26892V11.5517C16.7995 11.6916 16.7712 11.8301 16.7159 11.9587C16.6607 12.0873 16.5796 12.2031 16.4779 12.2992C16.3697 12.4059 16.2395 12.4877 16.0964 12.5388C15.9533 12.5899 15.8008 12.6092 15.6495 12.5953C15.3788 12.5499 15.1338 12.4078 14.96 12.1954C14.7862 11.983 14.6955 11.7147 14.7046 11.4404V3.15238C14.7079 2.74028 14.6282 2.33172 14.4702 1.95111C14.3122 1.57049 14.0791 1.22561 13.7849 0.937062C13.4023 0.546207 12.9237 0.262848 12.397 0.115422C11.8703 -0.0320046 11.3141 -0.038312 10.7842 0.0971323C10.0899 0.283974 9.47796 0.697699 9.04589 1.27246C8.61382 1.84722 8.38642 2.54999 8.39987 3.26892V11.5517C8.4002 11.6916 8.37186 11.8301 8.31661 11.9587C8.26135 12.0873 8.18035 12.2031 8.0786 12.2992C7.9704 12.4059 7.84021 12.4877 7.69713 12.5388C7.55404 12.5899 7.40152 12.6092 7.25022 12.5953C6.97802 12.551 6.73133 12.4089 6.55641 12.1957C6.38148 11.9825 6.29033 11.7128 6.30004 11.4372V3.15238C6.30326 2.74045 6.22347 2.3321 6.06546 1.95167C5.90744 1.57125 5.67443 1.22654 5.38032 0.938112C4.99775 0.547257 4.51911 0.263898 3.99243 0.116472C3.46575 -0.0309547 2.90956 -0.0372621 2.37967 0.0981822C1.68647 0.285967 1.07588 0.699956 0.644846 1.27441C0.213814 1.84887 -0.012947 2.55086 0.000571207 3.26892V16.8012C0.00279425 18.7497 0.777816 20.6178 2.15561 21.9956C3.53341 23.3734 5.40146 24.1484 7.34996 24.1506V58.7977C7.34995 59.3511 7.4593 59.899 7.67173 60.41C7.88416 60.9209 8.19548 61.3849 8.58779 61.7751C8.9801 62.1654 9.44567 62.4743 9.95775 62.684C10.4698 62.8938 11.0183 63.0003 11.5717 62.9974C11.6399 62.9974 11.7081 62.9974 11.7764 62.9921C12.8708 62.9092 13.892 62.4108 14.6306 61.5991C15.3693 60.7874 15.7695 59.7239 15.7493 58.6266V46.7405C20.7006 55.1398 29.9913 61.1915 32.383 62.6562C32.7487 62.881 33.1695 63 33.5988 63C34.0281 63 34.4489 62.881 34.8146 62.6562C37.2053 61.1915 46.4949 55.1398 51.4463 46.7405V58.7977C51.4463 59.3511 51.5556 59.899 51.768 60.41C51.9805 60.9209 52.2918 61.3849 52.6841 61.7751C53.0764 62.1654 53.542 62.4743 54.0541 62.684C54.5661 62.8938 55.1146 63.0003 55.668 62.9974C55.7362 62.9974 55.8045 62.9974 55.878 62.9921C56.9714 62.9079 57.9913 62.409 58.7289 61.5974C59.4665 60.7859 59.8659 59.7231 59.8456 58.6266V37.664C60.7467 37.4314 61.545 36.906 62.1151 36.1703C62.6852 35.4347 62.9948 34.5305 62.9953 33.5998V10.4388C62.991 7.88374 62.0568 5.41762 60.3672 3.501C58.6776 1.58438 56.3481 0.348306 53.8138 0.0236384ZM13.6494 23.1007V31.5305C12.9646 33.001 12.6065 34.6024 12.5995 36.2246C12.6125 38.2757 12.9674 40.3104 13.6494 42.2448V58.6234C13.6647 59.1816 13.4698 59.7251 13.1032 60.1463C12.7367 60.5675 12.2253 60.8356 11.6703 60.8975C11.382 60.9125 11.0937 60.8685 10.8229 60.7684C10.5521 60.6682 10.3046 60.5139 10.0955 60.3148C9.89022 60.1193 9.72708 59.8838 9.61604 59.6229C9.50501 59.3621 9.44844 59.0812 9.44978 58.7977V23.1007C9.44978 22.8223 9.33916 22.5552 9.14227 22.3583C8.94537 22.1614 8.67832 22.0508 8.39987 22.0508H7.34996C5.95769 22.0508 4.62244 21.4977 3.63796 20.5132C2.65347 19.5288 2.1004 18.1935 2.1004 16.8012V3.26892C2.09023 3.02063 2.1613 2.7758 2.30283 2.57156C2.44437 2.36731 2.64864 2.21479 2.88468 2.13711C3.06394 2.08738 3.25344 2.08802 3.43236 2.13895C3.61128 2.18989 3.7727 2.28915 3.8989 2.42584C3.99531 2.52052 4.07167 2.63365 4.12344 2.75847C4.17521 2.88329 4.20132 3.01725 4.20022 3.15238V11.4362C4.18916 12.2393 4.47774 13.0177 5.00964 13.6195C5.54155 14.2213 6.27861 14.6033 7.07698 14.6909C7.51175 14.7271 7.94932 14.673 8.36213 14.5318C8.77494 14.3906 9.15404 14.1655 9.47557 13.8706C9.7971 13.5757 10.0541 13.2174 10.2303 12.8183C10.4066 12.4192 10.4983 11.988 10.4997 11.5517V3.26892C10.4895 3.02063 10.5606 2.7758 10.7021 2.57156C10.8437 2.36731 11.0479 2.21479 11.284 2.13711C11.4391 2.09865 11.6009 2.09574 11.7572 2.1286C11.9136 2.16146 12.0606 2.22924 12.1871 2.32687C12.3136 2.4245 12.4164 2.54945 12.4878 2.6924C12.5592 2.83535 12.5974 2.99259 12.5995 3.15238V11.4362C12.5885 12.2393 12.877 13.0177 13.4089 13.6195C13.9408 14.2213 14.6779 14.6033 15.4763 14.6909C15.9111 14.7271 16.3486 14.673 16.7614 14.5318C17.1742 14.3906 17.5533 14.1655 17.8749 13.8706C18.1964 13.5757 18.4534 13.2174 18.6296 12.8183C18.8059 12.4192 18.8976 11.988 18.899 11.5517V3.26892C18.8888 3.02063 18.9599 2.7758 19.1014 2.57156C19.243 2.36731 19.4472 2.21479 19.6833 2.13711C19.8625 2.08738 20.052 2.08802 20.231 2.13895C20.4099 2.18989 20.5713 2.28915 20.6975 2.42584C20.7939 2.52052 20.8703 2.63365 20.922 2.75847C20.9738 2.88329 20.9999 3.01725 20.9988 3.15238V16.8012C20.9988 18.1935 20.4457 19.5288 19.4613 20.5132C18.4768 21.4977 17.1415 22.0508 15.7493 22.0508H14.6993C14.4209 22.0508 14.1538 22.1614 13.9569 22.3583C13.76 22.5552 13.6494 22.8223 13.6494 23.1007ZM33.7196 60.8639C33.683 60.8856 33.6413 60.897 33.5988 60.897C33.5563 60.897 33.5146 60.8856 33.4781 60.8639C30.343 58.9458 14.6993 48.7364 14.6993 36.2246C14.6955 35.0224 14.9352 33.8318 15.404 32.7247C15.8727 31.6176 16.5609 30.6169 17.4269 29.7829C18.2929 28.949 19.3189 28.2991 20.4429 27.8724C21.5669 27.4458 22.7657 27.2512 23.9669 27.3004C28.8837 27.3004 32.7379 32.0691 32.7757 32.1174C32.8779 32.2351 33.0042 32.3294 33.146 32.3941C33.2878 32.4588 33.4419 32.4923 33.5978 32.4923C33.7536 32.4923 33.9077 32.4588 34.0495 32.3941C34.1914 32.3294 34.3176 32.2351 34.4198 32.1174C34.4576 32.0691 38.3119 27.3004 43.2286 27.3004C44.4299 27.2512 45.6286 27.4458 46.7526 27.8724C47.8767 28.2991 48.9026 28.949 49.7686 29.7829C50.6346 30.6169 51.3228 31.6176 51.7916 32.7247C52.2603 33.8318 52.5 35.0224 52.4962 36.2246C52.4962 48.7364 36.8525 58.9458 33.7196 60.8639ZM60.8955 33.5998C60.8955 34.1567 60.6743 34.6908 60.2805 35.0846C59.8867 35.4784 59.3526 35.6997 58.7957 35.6997C58.5172 35.6997 58.2502 35.8103 58.0533 36.0072C57.8564 36.2041 57.7457 36.4711 57.7457 36.7496V58.6266C57.7602 59.1842 57.5649 59.7269 57.1984 60.1475C56.832 60.568 56.321 60.8357 55.7667 60.8975C55.4783 60.9126 55.19 60.8686 54.9192 60.7684C54.6484 60.6683 54.4009 60.5139 54.1918 60.3148C53.9865 60.1193 53.8234 59.8838 53.7124 59.6229C53.6013 59.3621 53.5448 59.0812 53.5461 58.7977V42.2448C54.2282 40.3104 54.583 38.2757 54.596 36.2246C54.5892 34.6021 54.231 33.0003 53.5461 31.5294V2.10246C55.5747 2.36212 57.4394 3.3514 58.7919 4.88551C60.1444 6.41961 60.8921 8.39361 60.8955 10.4388V33.5998Z" fill="#274C5B"/>
<path d="M46.1968 43.0489H41.9972C41.8244 43.0489 41.6542 43.0915 41.5018 43.173C41.3494 43.2545 41.2195 43.3724 41.1236 43.5161L40.0989 45.0532L37.7125 39.4887C37.6325 39.3004 37.4993 39.1396 37.3292 39.026C37.1591 38.9124 36.9595 38.851 36.7549 38.8493H36.7476C36.5445 38.8492 36.3457 38.9082 36.1753 39.0188C36.005 39.1295 35.8705 39.2873 35.788 39.4729L32.7432 46.333L30.4072 38.5479C30.3447 38.3386 30.2184 38.154 30.0461 38.0198C29.8737 37.8856 29.6637 37.8086 29.4455 37.7994C29.2264 37.7825 29.0078 37.8378 28.8231 37.9569C28.6385 38.0759 28.4979 38.2522 28.4228 38.4587L26.5876 43.0489H23.0987C22.8203 43.0489 22.5532 43.1595 22.3563 43.3564C22.1594 43.5533 22.0488 43.8204 22.0488 44.0988C22.0488 44.3773 22.1594 44.6443 22.3563 44.8412C22.5532 45.0381 22.8203 45.1487 23.0987 45.1487H27.2984C27.5084 45.1488 27.7135 45.0859 27.8874 44.9682C28.0613 44.8505 28.1959 44.6833 28.2738 44.4883L29.2565 42.0305L31.5421 49.6497C31.6037 49.8553 31.7268 50.037 31.8948 50.1705C32.0628 50.3039 32.2677 50.3827 32.4818 50.3962L32.548 50.3983C32.7511 50.3983 32.9499 50.3394 33.1202 50.2287C33.2905 50.118 33.4251 49.9603 33.5076 49.7747L36.7298 42.524L38.9346 47.6622C39.0091 47.836 39.1291 47.9865 39.2821 48.0977C39.435 48.2089 39.6151 48.2768 39.8034 48.2941C39.9917 48.3114 40.1812 48.2776 40.3519 48.1961C40.5225 48.1146 40.668 47.9886 40.773 47.8313L42.5589 45.1487H46.1968C46.4753 45.1487 46.7423 45.0381 46.9392 44.8412C47.1361 44.6443 47.2467 44.3773 47.2467 44.0988C47.2467 43.8204 47.1361 43.5533 46.9392 43.3564C46.7423 43.1595 46.4753 43.0489 46.1968 43.0489Z" fill="#274C5B"/>
</svg>
