<svg width="408" height="365" viewBox="0 0 408 365" fill="none" xmlns="http://www.w3.org/2000/svg">
<path d="M105.22 342.567C96.5817 340.934 -7.2389 326.218 0.401547 217.696C8.04199 109.174 17.6378 76.5233 57.9987 64.5988C98.3596 52.6742 196.48 -3.85473 273.473 49.8649C350.465 103.585 433.552 151.771 400.577 237.553C367.601 323.335 362.212 351.945 276.189 347.565C190.167 343.185 146.309 350.33 105.22 342.567Z" fill="#FFE195"/>
<path d="M277.038 278.499C276.694 281.17 275.388 283.625 273.366 285.403C271.343 287.182 268.742 288.163 266.048 288.163H136.778C134.081 288.164 131.476 287.181 129.452 285.398C127.428 283.616 126.123 281.156 125.783 278.481L277.038 278.499Z" fill="white"/>
<path d="M266.049 289.068H136.778C133.862 289.066 131.048 288.002 128.859 286.075C126.671 284.148 125.259 281.491 124.888 278.599C124.858 278.359 124.924 278.117 125.073 277.926C125.221 277.735 125.44 277.611 125.68 277.581C125.92 277.551 126.162 277.617 126.353 277.766C126.544 277.914 126.668 278.133 126.698 278.373C127.013 280.825 128.21 283.079 130.064 284.714C131.919 286.349 134.305 287.253 136.778 287.258H266.049C268.522 287.256 270.91 286.354 272.767 284.721C274.625 283.087 275.824 280.834 276.143 278.382C276.173 278.142 276.297 277.923 276.488 277.775C276.679 277.626 276.921 277.56 277.161 277.59C277.401 277.62 277.619 277.744 277.768 277.935C277.916 278.126 277.983 278.368 277.953 278.608C277.577 281.499 276.162 284.156 273.971 286.08C271.781 288.005 268.965 289.067 266.049 289.068Z" fill="#47485E"/>
<path d="M261.492 281.345H141.329C140.671 281.343 140.04 281.081 139.576 280.616C139.111 280.15 138.85 279.519 138.85 278.861V278.684C138.85 278.444 138.945 278.214 139.115 278.044C139.284 277.875 139.514 277.779 139.754 277.779C139.994 277.779 140.225 277.875 140.394 278.044C140.564 278.214 140.659 278.444 140.659 278.684V278.861C140.659 279.039 140.73 279.21 140.855 279.336C140.981 279.462 141.151 279.534 141.329 279.535H261.492C261.671 279.535 261.843 279.464 261.969 279.337C262.095 279.211 262.166 279.04 262.166 278.861C262.166 278.621 262.262 278.391 262.432 278.221C262.601 278.051 262.831 277.956 263.071 277.956C263.311 277.956 263.542 278.051 263.711 278.221C263.881 278.391 263.976 278.621 263.976 278.861C263.976 279.52 263.715 280.151 263.249 280.617C262.783 281.083 262.151 281.345 261.492 281.345Z" fill="#6A79A8"/>
<path d="M142.965 199.463V356.056C142.965 360.262 146.374 363.671 150.579 363.671H250.663C254.869 363.671 258.278 360.262 258.278 356.056V199.463C258.278 195.257 254.869 191.848 250.663 191.848H150.579C146.374 191.848 142.965 195.257 142.965 199.463Z" fill="white"/>
<path d="M250.669 364.576H150.58C148.322 364.573 146.157 363.676 144.56 362.079C142.963 360.483 142.064 358.319 142.061 356.061V199.485C142.064 197.227 142.963 195.062 144.56 193.465C146.157 191.868 148.322 190.969 150.58 190.966H250.669C252.931 190.963 255.102 191.859 256.703 193.457C258.305 195.055 259.207 197.223 259.211 199.485V356.061C259.209 357.181 258.986 358.289 258.556 359.324C258.126 360.358 257.496 361.297 256.703 362.087C255.91 362.878 254.969 363.505 253.933 363.932C252.898 364.359 251.788 364.578 250.669 364.576ZM150.58 192.753C148.798 192.757 147.09 193.468 145.831 194.73C144.573 195.993 143.868 197.703 143.87 199.485V356.061C143.874 357.839 144.582 359.543 145.84 360.8C147.097 362.057 148.802 362.764 150.58 362.766H250.669C251.551 362.768 252.425 362.596 253.241 362.26C254.057 361.924 254.798 361.43 255.423 360.808C256.049 360.185 256.545 359.445 256.884 358.631C257.223 357.816 257.399 356.943 257.401 356.061V199.485C257.397 197.707 256.689 196.002 255.432 194.745C254.174 193.487 252.47 192.779 250.691 192.776L150.58 192.753Z" fill="#47485E"/>
<path d="M242.294 349.926C242.054 349.926 241.823 349.83 241.654 349.661C241.484 349.491 241.389 349.261 241.389 349.021V288.367C241.389 288.127 241.484 287.897 241.654 287.727C241.823 287.557 242.054 287.462 242.294 287.462C242.534 287.462 242.764 287.557 242.933 287.727C243.103 287.897 243.198 288.127 243.198 288.367V349.021C243.198 349.261 243.103 349.491 242.933 349.661C242.764 349.83 242.534 349.926 242.294 349.926Z" fill="#47485E"/>
<path d="M157.108 349.926C156.868 349.926 156.638 349.83 156.468 349.661C156.298 349.491 156.203 349.261 156.203 349.021V288.367C156.203 288.127 156.298 287.897 156.468 287.727C156.638 287.557 156.868 287.462 157.108 287.462C157.348 287.462 157.578 287.557 157.748 287.727C157.918 287.897 158.013 288.127 158.013 288.367V349.021C158.013 349.261 157.918 349.491 157.748 349.661C157.578 349.83 157.348 349.926 157.108 349.926Z" fill="#47485E"/>
<path d="M176.933 236.697C184.984 234.825 189.993 226.781 188.121 218.73C186.249 210.679 178.205 205.67 170.154 207.542C162.103 209.414 157.094 217.458 158.966 225.509C160.838 233.56 168.882 238.569 176.933 236.697Z" fill="#BBDFF5"/>
<path d="M184.142 243.768C189.987 237.923 189.987 228.446 184.142 222.602C178.297 216.757 168.821 216.757 162.976 222.602C157.131 228.446 157.131 237.923 162.976 243.768C168.821 249.613 178.297 249.613 184.142 243.768Z" fill="#BBDFF5"/>
<path d="M185.857 225.224C185.617 225.224 185.387 225.129 185.217 224.959C185.047 224.79 184.952 224.56 184.952 224.32C184.985 222.451 184.646 220.595 183.955 218.86C183.263 217.124 182.232 215.543 180.923 214.21C179.614 212.877 178.052 211.819 176.329 211.096C174.606 210.373 172.756 210.001 170.888 210.001C169.019 210.001 167.17 210.373 165.447 211.096C163.724 211.819 162.162 212.877 160.853 214.21C159.543 215.543 158.513 217.124 157.821 218.86C157.129 220.595 156.79 222.451 156.824 224.32C156.824 224.56 156.728 224.79 156.559 224.959C156.389 225.129 156.159 225.224 155.919 225.224C155.679 225.224 155.449 225.129 155.279 224.959C155.109 224.79 155.014 224.56 155.014 224.32C154.978 222.212 155.363 220.119 156.144 218.162C156.926 216.205 158.09 214.423 159.567 212.921C161.045 211.418 162.807 210.224 164.75 209.41C166.694 208.595 168.78 208.175 170.888 208.175C172.995 208.175 175.082 208.595 177.025 209.41C178.969 210.224 180.731 211.418 182.208 212.921C183.686 214.423 184.849 216.205 185.631 218.162C186.413 220.119 186.797 222.212 186.762 224.32C186.762 224.56 186.666 224.79 186.497 224.959C186.327 225.129 186.097 225.224 185.857 225.224Z" fill="#6A79A8"/>
<path d="M170.888 251.28C167.748 251.281 164.678 250.351 162.067 248.607C159.456 246.863 157.42 244.384 156.218 241.483C155.015 238.582 154.7 235.39 155.312 232.31C155.924 229.23 157.436 226.4 159.656 224.18C161.876 221.959 164.705 220.446 167.785 219.833C170.865 219.22 174.057 219.535 176.958 220.736C179.86 221.938 182.339 223.972 184.084 226.583C185.829 229.194 186.76 232.264 186.76 235.404C186.755 239.612 185.082 243.647 182.106 246.623C179.131 249.6 175.097 251.274 170.888 251.28ZM170.888 221.342C168.106 221.341 165.386 222.166 163.072 223.711C160.758 225.256 158.954 227.453 157.889 230.024C156.824 232.594 156.545 235.423 157.088 238.152C157.63 240.881 158.97 243.388 160.938 245.355C162.905 247.323 165.412 248.662 168.141 249.205C170.87 249.748 173.698 249.469 176.269 248.403C178.839 247.338 181.036 245.535 182.582 243.221C184.127 240.907 184.951 238.187 184.95 235.404C184.945 231.676 183.462 228.102 180.826 225.466C178.19 222.83 174.616 221.347 170.888 221.342Z" fill="#6A79A8"/>
<path d="M171.766 318.834V339.212C171.766 343.265 175.051 346.55 179.104 346.55H190.795C194.848 346.55 198.134 343.265 198.134 339.212V318.834C198.134 314.781 194.848 311.495 190.795 311.495H179.104C175.051 311.495 171.766 314.781 171.766 318.834Z" fill="#DBAE76"/>
<path d="M188.628 349.926H176.923C174.738 349.923 172.642 349.054 171.097 347.509C169.551 345.963 168.682 343.868 168.68 341.682V321.323C168.677 320.238 168.888 319.163 169.301 318.16C169.713 317.156 170.32 316.244 171.086 315.476C171.851 314.707 172.761 314.097 173.763 313.68C174.764 313.264 175.838 313.049 176.923 313.047H188.628C190.813 313.051 192.907 313.921 194.451 315.466C195.996 317.011 196.864 319.106 196.867 321.291V341.651C196.87 342.735 196.659 343.81 196.246 344.813C195.834 345.816 195.228 346.727 194.462 347.496C193.697 348.264 192.788 348.875 191.787 349.292C190.786 349.708 189.712 349.924 188.628 349.926ZM176.923 314.857C175.218 314.86 173.583 315.538 172.377 316.744C171.17 317.95 170.492 319.585 170.489 321.291V341.651C170.492 343.356 171.17 344.991 172.377 346.197C173.583 347.403 175.218 348.082 176.923 348.084H188.628C190.333 348.082 191.968 347.403 193.173 346.197C194.378 344.991 195.056 343.356 195.057 341.651V321.291C195.056 319.586 194.378 317.951 193.173 316.744C191.968 315.538 190.333 314.86 188.628 314.857H176.923Z" fill="#47485E"/>
<path d="M214.67 244.285V275.486H226.755V244.285H214.67Z" fill="#BBDFF5"/>
<path d="M214.67 206.819V238.019H226.755V206.819H214.67Z" fill="#BBDFF5"/>
<path d="M224.79 349.609C224.55 349.609 224.32 349.513 224.15 349.344C223.98 349.174 223.885 348.944 223.885 348.704V317.485C223.885 317.245 223.98 317.015 224.15 316.846C224.32 316.676 224.55 316.581 224.79 316.581C225.03 316.581 225.26 316.676 225.43 316.846C225.599 317.015 225.695 317.245 225.695 317.485V348.704C225.695 348.944 225.599 349.174 225.43 349.344C225.26 349.513 225.03 349.609 224.79 349.609Z" fill="#47485E"/>
<path d="M224.79 238.924C224.55 238.924 224.32 238.829 224.15 238.659C223.98 238.49 223.885 238.259 223.885 238.019V206.801C223.885 206.561 223.98 206.331 224.15 206.161C224.32 205.992 224.55 205.896 224.79 205.896C225.03 205.896 225.26 205.992 225.43 206.161C225.599 206.331 225.695 206.561 225.695 206.801V238.019C225.695 238.259 225.599 238.49 225.43 238.659C225.26 238.829 225.03 238.924 224.79 238.924Z" fill="#6A79A8"/>
<path d="M224.79 275.947C224.55 275.947 224.32 275.852 224.15 275.682C223.98 275.512 223.885 275.282 223.885 275.042V243.824C223.885 243.584 223.98 243.354 224.15 243.184C224.32 243.014 224.55 242.919 224.79 242.919C225.03 242.919 225.26 243.014 225.43 243.184C225.599 243.354 225.695 243.584 225.695 243.824V275.042C225.695 275.282 225.599 275.512 225.43 275.682C225.26 275.852 225.03 275.947 224.79 275.947Z" fill="#6A79A8"/>
<path d="M224.79 312.794C224.55 312.794 224.32 312.699 224.15 312.529C223.98 312.359 223.885 312.129 223.885 311.889V280.671C223.885 280.431 223.98 280.201 224.15 280.031C224.32 279.861 224.55 279.766 224.79 279.766C225.03 279.766 225.26 279.861 225.43 280.031C225.599 280.201 225.695 280.431 225.695 280.671V311.889C225.695 312.129 225.599 312.359 225.43 312.529C225.26 312.699 225.03 312.794 224.79 312.794Z" fill="#47485E"/>
<path d="M125.699 59.2288V57.3919C125.699 54.5649 126.822 51.8536 128.821 49.8545C130.82 47.8555 133.532 46.7325 136.359 46.7325H266.471C269.298 46.7325 272.009 47.8555 274.009 49.8545C276.008 51.8536 277.131 54.5649 277.131 57.3919V59.2288H125.699Z" fill="white"/>
<path d="M277.127 60.1335C276.887 60.1335 276.657 60.0381 276.488 59.8684C276.318 59.6987 276.222 59.4686 276.222 59.2286V57.3917C276.22 54.8053 275.192 52.3256 273.363 50.4968C271.534 48.668 269.054 47.6395 266.468 47.6371H136.355C133.769 47.6395 131.289 48.668 129.46 50.4968C127.632 52.3256 126.603 54.8053 126.601 57.3917V59.2286C126.601 59.4686 126.505 59.6987 126.336 59.8684C126.166 60.0381 125.936 60.1335 125.696 60.1335C125.456 60.1335 125.226 60.0381 125.056 59.8684C124.886 59.6987 124.791 59.4686 124.791 59.2286V57.3917C124.795 54.3257 126.014 51.3864 128.182 49.2184C130.35 47.0505 133.289 45.8309 136.355 45.8273H266.468C269.534 45.8309 272.473 47.0505 274.641 49.2184C276.809 51.3864 278.029 54.3257 278.032 57.3917V59.2286C278.032 59.4686 277.937 59.6987 277.767 59.8684C277.598 60.0381 277.367 60.1335 277.127 60.1335Z" fill="#47485E"/>
<path d="M150.116 57.0213C149.876 57.0213 149.646 56.926 149.476 56.7563C149.306 56.5866 149.211 56.3564 149.211 56.1164C149.211 55.0552 149.632 54.0375 150.382 53.2867C151.132 52.5359 152.149 52.1135 153.21 52.1123H249.612C250.673 52.1135 251.691 52.5358 252.442 53.2864C253.192 54.0371 253.615 55.0548 253.616 56.1164C253.616 56.3564 253.52 56.5866 253.351 56.7563C253.181 56.926 252.951 57.0213 252.711 57.0213C252.471 57.0213 252.241 56.926 252.071 56.7563C251.901 56.5866 251.806 56.3564 251.806 56.1164C251.806 55.5344 251.575 54.9763 251.163 54.5648C250.752 54.1533 250.194 53.9221 249.612 53.9221H153.21C152.629 53.9233 152.072 54.155 151.662 54.5664C151.251 54.9778 151.021 55.5352 151.021 56.1164C151.021 56.3564 150.925 56.5866 150.756 56.7563C150.586 56.926 150.356 57.0213 150.116 57.0213Z" fill="#47485E"/>
<path d="M152.524 203.656H152.004C152.177 203.668 152.351 203.668 152.524 203.656Z" fill="white"/>
<path d="M255.085 6.89513C254.596 2.4929 252.18 0.873161 249.864 0.904832H243.71V0.71933L163.914 0.90936C163.769 0.90936 163.624 0.90936 163.461 0.90936H163.841L162.602 1.04962L161.294 1.57897L160.267 2.29835L159.159 3.50636L158.557 4.4972L158.163 5.40208L157.788 6.87703V197.675H157.471C157.019 201.706 154.756 203.557 152.494 203.652H238.358C240.675 203.684 243.091 202.064 243.579 197.662H243.679V6.89513H255.085Z" fill="white"/>
<path d="M157.591 12.6276H157.563C157.443 12.6277 157.323 12.6035 157.212 12.5566C157.1 12.5098 157 12.4411 156.915 12.3546C156.831 12.2682 156.765 12.1658 156.721 12.0534C156.677 11.9409 156.655 11.8208 156.658 11.7001C156.658 11.2477 156.658 10.7952 156.658 10.3428C156.658 8.41994 156.658 6.4292 157.563 4.46109C158.595 2.1989 160.577 0.529399 162.735 0.117679C163.462 -0.0216137 164.21 -0.00744369 164.932 0.159287C165.653 0.326018 166.332 0.641632 166.924 1.0859C167.942 1.83242 169.187 3.28475 169.707 6.01296H254.037C253.295 1.7917 251.273 1.81885 250.58 1.83242C250.34 1.83242 250.11 1.73709 249.941 1.56739C249.771 1.39769 249.675 1.16753 249.675 0.927542C249.675 0.687553 249.771 0.457393 249.941 0.287696C250.11 0.117998 250.34 0.0226635 250.58 0.0226635C252.689 4.1496e-05 255.376 1.14924 256.01 6.80925C256.024 6.93617 256.011 7.06463 255.972 7.18617C255.932 7.30772 255.868 7.4196 255.783 7.51447C255.697 7.60934 255.593 7.68505 255.476 7.73662C255.359 7.78818 255.232 7.81444 255.105 7.81367H168.96C168.737 7.81515 168.522 7.73423 168.355 7.58643C168.188 7.43864 168.081 7.23438 168.055 7.01285C167.752 4.41132 166.698 3.13997 165.879 2.5337C165.486 2.23972 165.036 2.03044 164.558 1.91908C164.08 1.80772 163.584 1.7967 163.101 1.88671C161.509 2.18985 160.029 3.4612 159.237 5.20309C158.504 6.8183 158.504 8.53305 158.5 10.3473C158.5 10.7998 158.5 11.2839 158.5 11.7589C158.491 11.9934 158.39 12.215 158.221 12.3771C158.051 12.5392 157.825 12.629 157.591 12.6276Z" fill="#47485E"/>
<path d="M250.095 1.80976H163.475C163.235 1.80976 163.005 1.71442 162.835 1.54472C162.666 1.37503 162.57 1.14487 162.57 0.904878C162.57 0.66489 162.666 0.43473 162.835 0.265032C163.005 0.0953344 163.235 0 163.475 0H250.095C250.335 0 250.565 0.0953344 250.735 0.265032C250.904 0.43473 251 0.66489 251 0.904878C251 1.14487 250.904 1.37503 250.735 1.54472C250.565 1.71442 250.335 1.80976 250.095 1.80976Z" fill="#47485E"/>
<path d="M157.587 198.58C157.347 198.58 157.116 198.485 156.947 198.315C156.777 198.145 156.682 197.915 156.682 197.675V10.1573C156.682 9.9173 156.777 9.68715 156.947 9.51745C157.116 9.34775 157.347 9.25241 157.587 9.25241C157.827 9.25241 158.057 9.34775 158.226 9.51745C158.396 9.68715 158.491 9.9173 158.491 10.1573V197.675C158.491 197.915 158.396 198.145 158.226 198.315C158.057 198.485 157.827 198.58 157.587 198.58Z" fill="#47485E"/>
<path d="M243.71 198.58C243.47 198.58 243.239 198.485 243.07 198.315C242.9 198.145 242.805 197.915 242.805 197.675V6.89514C242.805 6.65515 242.9 6.42499 243.07 6.2553C243.239 6.0856 243.47 5.99026 243.71 5.99026C243.95 5.99026 244.18 6.0856 244.349 6.2553C244.519 6.42499 244.614 6.65515 244.614 6.89514V197.675C244.614 197.915 244.519 198.145 244.349 198.315C244.18 198.485 243.95 198.58 243.71 198.58Z" fill="#47485E"/>
<path d="M238.55 204.575H151.903C151.663 204.575 151.433 204.479 151.263 204.31C151.093 204.14 150.998 203.91 150.998 203.67C150.998 203.43 151.093 203.2 151.263 203.03C151.433 202.86 151.663 202.765 151.903 202.765H238.545C240.862 202.765 242.45 200.833 242.807 197.58C242.833 197.34 242.954 197.12 243.142 196.969C243.331 196.818 243.571 196.748 243.811 196.775C244.051 196.801 244.271 196.922 244.422 197.11C244.573 197.299 244.643 197.539 244.617 197.779C244.051 202.792 241.11 204.575 238.55 204.575Z" fill="#6A79A8"/>
<path d="M152.399 204.575C152.063 204.575 151.728 204.544 151.399 204.48C149.236 204.069 147.255 202.408 146.227 200.137C145.323 198.164 145.323 196.174 145.323 194.255C145.323 193.803 145.323 193.35 145.323 192.898C145.316 192.658 145.405 192.425 145.57 192.251C145.735 192.076 145.963 191.975 146.203 191.968C146.443 191.962 146.675 192.051 146.85 192.216C147.024 192.381 147.126 192.608 147.132 192.848C147.132 193.323 147.132 193.794 147.132 194.264C147.132 196.074 147.132 197.789 147.87 199.408C148.662 201.15 150.132 202.417 151.729 202.72C152.212 202.812 152.709 202.801 153.189 202.69C153.668 202.578 154.118 202.368 154.512 202.073C155.335 201.467 156.385 200.2 156.688 197.599C156.715 197.359 156.837 197.14 157.027 196.989C157.216 196.839 157.457 196.77 157.697 196.798C157.937 196.826 158.156 196.947 158.306 197.137C158.456 197.326 158.525 197.567 158.498 197.807C158.118 201.055 156.688 202.711 155.597 203.53C154.671 204.213 153.55 204.58 152.399 204.575Z" fill="#6A79A8"/>
<path d="M232.305 21.1288H167.565C167.325 21.1288 167.095 21.0335 166.925 20.8638C166.755 20.6941 166.66 20.4639 166.66 20.2239C166.66 19.9839 166.755 19.7538 166.925 19.5841C167.095 19.4144 167.325 19.319 167.565 19.319H232.305C232.545 19.319 232.775 19.4144 232.944 19.5841C233.114 19.7538 233.209 19.9839 233.209 20.2239C233.209 20.4639 233.114 20.6941 232.944 20.8638C232.775 21.0335 232.545 21.1288 232.305 21.1288Z" fill="#47485E"/>
<path d="M232.307 31.3948H195.026C194.786 31.3948 194.556 31.2995 194.386 31.1298C194.216 30.9601 194.121 30.7299 194.121 30.49C194.121 30.25 194.216 30.0198 194.386 29.8501C194.556 29.6804 194.786 29.5851 195.026 29.5851H232.307C232.547 29.5851 232.777 29.6804 232.947 29.8501C233.117 30.0198 233.212 30.25 233.212 30.49C233.212 30.7299 233.117 30.9601 232.947 31.1298C232.777 31.2995 232.547 31.3948 232.307 31.3948Z" fill="#47485E"/>
<path d="M188.531 31.3948H167.565C167.325 31.3948 167.095 31.2995 166.925 31.1298C166.755 30.9601 166.66 30.7299 166.66 30.49C166.66 30.25 166.755 30.0198 166.925 29.8501C167.095 29.6804 167.325 29.5851 167.565 29.5851H188.531C188.771 29.5851 189.001 29.6804 189.171 29.8501C189.341 30.0198 189.436 30.25 189.436 30.49C189.436 30.7299 189.341 30.9601 189.171 31.1298C189.001 31.2995 188.771 31.3948 188.531 31.3948Z" fill="#47485E"/>
<path d="M232.306 41.6604H221.307C221.067 41.6604 220.837 41.5651 220.667 41.3954C220.498 41.2257 220.402 40.9955 220.402 40.7555C220.402 40.5155 220.498 40.2854 220.667 40.1157C220.837 39.946 221.067 39.8506 221.307 39.8506H232.306C232.546 39.8506 232.776 39.946 232.946 40.1157C233.116 40.2854 233.211 40.5155 233.211 40.7555C233.211 40.9955 233.116 41.2257 232.946 41.3954C232.776 41.5651 232.546 41.6604 232.306 41.6604Z" fill="#47485E"/>
<path d="M206.219 41.6604H195.026C194.786 41.6604 194.556 41.5651 194.386 41.3954C194.216 41.2257 194.121 40.9955 194.121 40.7555C194.121 40.5155 194.216 40.2854 194.386 40.1157C194.556 39.946 194.786 39.8506 195.026 39.8506H206.219C206.459 39.8506 206.689 39.946 206.859 40.1157C207.029 40.2854 207.124 40.5155 207.124 40.7555C207.124 40.9955 207.029 41.2257 206.859 41.3954C206.689 41.5651 206.459 41.6604 206.219 41.6604Z" fill="#47485E"/>
<path d="M179.758 41.6604H167.565C167.325 41.6604 167.095 41.5651 166.925 41.3954C166.755 41.2257 166.66 40.9955 166.66 40.7555C166.66 40.5155 166.755 40.2854 166.925 40.1157C167.095 39.946 167.325 39.8506 167.565 39.8506H179.758C179.998 39.8506 180.228 39.946 180.398 40.1157C180.568 40.2854 180.663 40.5155 180.663 40.7555C180.663 40.9955 180.568 41.2257 180.398 41.3954C180.228 41.5651 179.998 41.6604 179.758 41.6604Z" fill="#47485E"/>
<path d="M277.131 66.0248H125.699V268.831H277.131V66.0248Z" fill="white"/>
<path d="M277.127 269.735H125.696C125.456 269.735 125.226 269.64 125.056 269.47C124.886 269.3 124.791 269.07 124.791 268.83V66.0152C124.791 65.7753 124.886 65.5451 125.056 65.3754C125.226 65.2057 125.456 65.1104 125.696 65.1104H277.127C277.367 65.1104 277.598 65.2057 277.767 65.3754C277.937 65.5451 278.032 65.7753 278.032 66.0152V268.83C278.032 269.07 277.937 269.3 277.767 269.47C277.598 269.64 277.367 269.735 277.127 269.735ZM126.601 267.925H276.222V66.9201H126.601V267.925Z" fill="#47485E"/>
<path d="M255.41 78.1045H147.422C142.03 78.1045 137.658 82.4758 137.658 87.8681V134.067C137.658 139.459 142.03 143.83 147.422 143.83H255.41C260.802 143.83 265.174 139.459 265.174 134.067V87.8681C265.174 82.4758 260.802 78.1045 255.41 78.1045Z" fill="#47485E"/>
<path d="M255.407 144.378H147.418C144.589 144.374 141.877 143.249 139.877 141.248C137.877 139.247 136.752 136.534 136.75 133.705V87.8683C136.754 85.04 137.879 82.3285 139.879 80.3285C141.879 78.3286 144.59 77.2034 147.418 77.1998H255.407C258.235 77.2034 260.947 78.3286 262.947 80.3285C264.947 82.3285 266.072 85.04 266.075 87.8683V133.705C266.073 136.534 264.948 139.247 262.948 141.248C260.948 143.249 258.236 144.374 255.407 144.378ZM147.418 79.0096C145.07 79.012 142.818 79.9461 141.157 81.6069C139.496 83.2677 138.562 85.5196 138.56 87.8683V133.705C138.562 136.054 139.496 138.306 141.157 139.968C142.817 141.63 145.069 142.565 147.418 142.568H255.407C257.756 142.565 260.008 141.63 261.668 139.968C263.329 138.306 264.263 136.054 264.265 133.705V87.8683C264.263 85.5196 263.329 83.2677 261.668 81.6069C260.007 79.9461 257.755 79.012 255.407 79.0096H147.418Z" fill="#47485E"/>
<path d="M258.632 158.761H242.485C240.028 158.761 238.037 160.752 238.037 163.209V173.497C238.037 175.953 240.028 177.945 242.485 177.945H258.632C261.088 177.945 263.08 175.953 263.08 173.497V163.209C263.08 160.752 261.088 158.761 258.632 158.761Z" fill="#DBAE76"/>
<path d="M225.917 158.761H209.77C207.313 158.761 205.322 160.752 205.322 163.209V173.497C205.322 175.953 207.313 177.945 209.77 177.945H225.917C228.374 177.945 230.365 175.953 230.365 173.497V163.209C230.365 160.752 228.374 158.761 225.917 158.761Z" fill="#DBAE76"/>
<path d="M193.21 158.761H177.063C174.606 158.761 172.615 160.752 172.615 163.209V173.497C172.615 175.953 174.606 177.945 177.063 177.945H193.21C195.667 177.945 197.658 175.953 197.658 173.497V163.209C197.658 160.752 195.667 158.761 193.21 158.761Z" fill="#DBAE76"/>
<path d="M258.632 185.278H242.485C240.028 185.278 238.037 187.269 238.037 189.726V200.014C238.037 202.47 240.028 204.461 242.485 204.461H258.632C261.088 204.461 263.08 202.47 263.08 200.014V189.726C263.08 187.269 261.088 185.278 258.632 185.278Z" fill="#DBAE76"/>
<path d="M225.917 185.278H209.77C207.313 185.278 205.322 187.269 205.322 189.726V200.014C205.322 202.47 207.313 204.461 209.77 204.461H225.917C228.374 204.461 230.365 202.47 230.365 200.014V189.726C230.365 187.269 228.374 185.278 225.917 185.278Z" fill="#DBAE76"/>
<path d="M193.21 185.278H177.063C174.606 185.278 172.615 187.269 172.615 189.726V200.014C172.615 202.47 174.606 204.461 177.063 204.461H193.21C195.667 204.461 197.658 202.47 197.658 200.014V189.726C197.658 187.269 195.667 185.278 193.21 185.278Z" fill="#DBAE76"/>
<path d="M258.632 211.796H242.485C240.028 211.796 238.037 213.787 238.037 216.244V226.532C238.037 228.988 240.028 230.979 242.485 230.979H258.632C261.088 230.979 263.08 228.988 263.08 226.532V216.244C263.08 213.787 261.088 211.796 258.632 211.796Z" fill="#DBAE76"/>
<path d="M225.917 211.796H209.77C207.313 211.796 205.322 213.787 205.322 216.244V226.532C205.322 228.988 207.313 230.979 209.77 230.979H225.917C228.374 230.979 230.365 228.988 230.365 226.532V216.244C230.365 213.787 228.374 211.796 225.917 211.796Z" fill="#DBAE76"/>
<path d="M193.21 211.796H177.063C174.606 211.796 172.615 213.787 172.615 216.244V226.532C172.615 228.988 174.606 230.979 177.063 230.979H193.21C195.667 230.979 197.658 228.988 197.658 226.532V216.244C197.658 213.787 195.667 211.796 193.21 211.796Z" fill="#DBAE76"/>
<path d="M258.632 238.313H242.485C240.028 238.313 238.037 240.304 238.037 242.761V253.049C238.037 255.505 240.028 257.497 242.485 257.497H258.632C261.088 257.497 263.08 255.505 263.08 253.049V242.761C263.08 240.304 261.088 238.313 258.632 238.313Z" fill="#DBAE76"/>
<path d="M225.917 238.313H209.77C207.313 238.313 205.322 240.304 205.322 242.761V253.049C205.322 255.505 207.313 257.497 209.77 257.497H225.917C228.374 257.497 230.365 255.505 230.365 253.049V242.761C230.365 240.304 228.374 238.313 225.917 238.313Z" fill="#DBAE76"/>
<path d="M193.21 238.313H177.063C174.606 238.313 172.615 240.304 172.615 242.761V253.049C172.615 255.505 174.606 257.497 177.063 257.497H193.21C195.667 257.497 197.658 255.505 197.658 253.049V242.761C197.658 240.304 195.667 238.313 193.21 238.313Z" fill="#DBAE76"/>
<path d="M160.353 158.761H144.205C141.749 158.761 139.758 160.752 139.758 163.209V173.497C139.758 175.953 141.749 177.945 144.205 177.945H160.353C162.809 177.945 164.8 175.953 164.8 173.497V163.209C164.8 160.752 162.809 158.761 160.353 158.761Z" fill="#DBAE76"/>
<path d="M160.353 185.278H144.205C141.749 185.278 139.758 187.269 139.758 189.726V200.014C139.758 202.47 141.749 204.461 144.205 204.461H160.353C162.809 204.461 164.8 202.47 164.8 200.014V189.726C164.8 187.269 162.809 185.278 160.353 185.278Z" fill="#DBAE76"/>
<path d="M160.353 211.796H144.205C141.749 211.796 139.758 213.787 139.758 216.244V226.532C139.758 228.988 141.749 230.979 144.205 230.979H160.353C162.809 230.979 164.8 228.988 164.8 226.532V216.244C164.8 213.787 162.809 211.796 160.353 211.796Z" fill="#DBAE76"/>
<path d="M160.353 238.313H144.205C141.749 238.313 139.758 240.304 139.758 242.761V253.049C139.758 255.505 141.749 257.497 144.205 257.497H160.353C162.809 257.497 164.8 255.505 164.8 253.049V242.761C164.8 240.304 162.809 238.313 160.353 238.313Z" fill="#DBAE76"/>
<path d="M125.785 278.485C125.727 278.021 125.698 277.554 125.699 277.087V268.83H277.131V277.087C277.13 277.559 277.1 278.031 277.04 278.499L125.785 278.485Z" fill="white"/>
<path d="M277.045 279.404H276.928C276.69 279.373 276.475 279.25 276.328 279.061C276.181 278.872 276.115 278.632 276.145 278.395C276.199 277.964 276.226 277.53 276.226 277.096V269.735H126.605V277.087C126.605 277.518 126.632 277.949 126.686 278.377C126.701 278.496 126.692 278.616 126.66 278.732C126.629 278.847 126.574 278.955 126.501 279.05C126.427 279.144 126.336 279.223 126.232 279.283C126.128 279.342 126.013 279.38 125.894 279.395C125.775 279.41 125.655 279.401 125.539 279.369C125.424 279.337 125.316 279.283 125.221 279.21C125.127 279.136 125.048 279.045 124.988 278.941C124.929 278.837 124.891 278.722 124.876 278.603C124.813 278.1 124.781 277.594 124.781 277.087V268.83C124.781 268.59 124.877 268.36 125.046 268.19C125.216 268.021 125.446 267.925 125.686 267.925H277.118C277.358 267.925 277.588 268.021 277.757 268.19C277.927 268.36 278.022 268.59 278.022 268.83V277.087C278.022 277.597 277.991 278.106 277.927 278.612C277.9 278.828 277.796 279.027 277.634 279.172C277.472 279.318 277.263 279.4 277.045 279.404Z" fill="#47485E"/>
<path d="M263.071 279.766C262.831 279.766 262.601 279.671 262.432 279.501C262.262 279.331 262.166 279.101 262.166 278.861V278.685C262.166 278.506 262.095 278.334 261.969 278.208C261.843 278.081 261.671 278.01 261.492 278.01H141.329C141.151 278.012 140.981 278.083 140.855 278.209C140.73 278.336 140.659 278.507 140.659 278.685C140.659 278.925 140.564 279.155 140.394 279.324C140.225 279.494 139.994 279.589 139.754 279.589C139.514 279.589 139.284 279.494 139.115 279.324C138.945 279.155 138.85 278.925 138.85 278.685C138.85 278.027 139.111 277.395 139.576 276.93C140.04 276.464 140.671 276.202 141.329 276.201H261.492C262.151 276.201 262.783 276.462 263.249 276.928C263.715 277.394 263.976 278.026 263.976 278.685V278.861C263.976 279.101 263.881 279.331 263.711 279.501C263.542 279.671 263.311 279.766 263.071 279.766Z" fill="#47485E"/>
<path d="M277.131 59.2154H125.699V66.0609H277.131V59.2154Z" fill="white"/>
<path d="M249.612 60.1336H153.21C152.149 60.1324 151.132 59.7101 150.382 58.9593C149.632 58.2085 149.211 57.1907 149.211 56.1296C149.211 55.8896 149.306 55.6594 149.476 55.4897C149.646 55.32 149.876 55.2247 150.116 55.2247C150.356 55.2247 150.586 55.32 150.756 55.4897C150.925 55.6594 151.021 55.8896 151.021 56.1296C151.021 56.7107 151.251 57.2682 151.662 57.6796C152.072 58.091 152.629 58.3227 153.21 58.3239H249.612C250.194 58.3239 250.752 58.0927 251.163 57.6812C251.575 57.2697 251.806 56.7115 251.806 56.1296C251.806 55.8896 251.901 55.6594 252.071 55.4897C252.241 55.32 252.471 55.2247 252.711 55.2247C252.951 55.2247 253.181 55.32 253.351 55.4897C253.52 55.6594 253.616 55.8896 253.616 56.1296C253.615 57.1911 253.192 58.2089 252.442 58.9595C251.691 59.7102 250.673 60.1324 249.612 60.1336Z" fill="#47485E"/>
<path d="M277.127 66.9609H125.696C125.456 66.9609 125.226 66.8656 125.056 66.6959C124.886 66.5262 124.791 66.2961 124.791 66.0561V59.2288C124.791 58.9888 124.886 58.7586 125.056 58.5889C125.226 58.4192 125.456 58.3239 125.696 58.3239C125.936 58.3239 126.166 58.4192 126.336 58.5889C126.505 58.7586 126.601 58.9888 126.601 59.2288V65.1648H276.222V59.2288C276.222 58.9888 276.318 58.7586 276.488 58.5889C276.657 58.4192 276.887 58.3239 277.127 58.3239C277.367 58.3239 277.598 58.4192 277.767 58.5889C277.937 58.7586 278.032 58.9888 278.032 59.2288V66.0696C278.029 66.3073 277.932 66.534 277.762 66.7007C277.593 66.8675 277.365 66.961 277.127 66.9609Z" fill="#47485E"/>
<path d="M113.393 160.598C104.502 160.598 96.173 158.372 89.1737 154.029C80.943 148.9 74.6721 141.157 71.3657 132.04C71.3214 131.927 71.3 131.807 71.303 131.686C71.306 131.565 71.3331 131.446 71.3829 131.336C71.4327 131.226 71.5041 131.126 71.5929 131.044C71.6817 130.962 71.7861 130.898 71.8998 130.857C72.0136 130.816 72.1345 130.798 72.2553 130.805C72.3761 130.811 72.4944 130.842 72.6032 130.894C72.712 130.947 72.8091 131.022 72.8888 131.113C72.9684 131.204 73.029 131.31 73.0669 131.425C76.2365 140.158 82.2441 147.576 90.1284 152.49C99.9509 158.576 112.502 160.326 125.514 157.408C125.631 157.378 125.753 157.371 125.873 157.389C125.993 157.407 126.108 157.449 126.212 157.512C126.315 157.575 126.405 157.658 126.476 157.757C126.546 157.855 126.596 157.967 126.623 158.085C126.65 158.203 126.652 158.326 126.631 158.445C126.609 158.564 126.564 158.678 126.498 158.78C126.431 158.881 126.345 158.968 126.245 159.036C126.144 159.103 126.031 159.15 125.912 159.173C121.804 160.107 117.606 160.585 113.393 160.598Z" fill="#47485E"/>
<path d="M67.4518 145.912C67.2921 145.909 67.136 145.864 66.9994 145.781C65.5572 144.932 64.3683 143.713 63.556 142.25C62.7437 140.787 62.3377 139.133 62.3799 137.46C62.3853 137.341 62.414 137.225 62.4644 137.117C62.5148 137.009 62.586 136.913 62.6738 136.832C62.7616 136.752 62.8643 136.69 62.9762 136.649C63.088 136.609 63.2067 136.591 63.3255 136.596C63.4444 136.601 63.561 136.63 63.6687 136.681C63.7765 136.731 63.8732 136.802 63.9535 136.89C64.0337 136.978 64.0959 137.081 64.1364 137.192C64.1769 137.304 64.1951 137.423 64.1897 137.542C64.162 138.888 64.4941 140.218 65.1518 141.394C65.8096 142.569 66.7691 143.548 67.9314 144.229C68.1012 144.33 68.2335 144.483 68.3079 144.666C68.3823 144.849 68.3948 145.051 68.3436 145.242C68.2923 145.433 68.18 145.601 68.0239 145.722C67.8678 145.843 67.6764 145.91 67.479 145.912H67.4518Z" fill="#6A79A8"/>
<path d="M64.5331 148.554C64.3394 148.554 64.1506 148.492 63.9947 148.378C60.3164 145.663 58.1356 140.428 58.5654 135.388C58.5755 135.269 58.6089 135.154 58.6637 135.048C58.7185 134.942 58.7937 134.848 58.8849 134.771C58.976 134.694 59.0814 134.636 59.1951 134.6C59.3087 134.563 59.4284 134.55 59.5472 134.56C59.6661 134.57 59.7817 134.604 59.8877 134.658C59.9936 134.713 60.0877 134.788 60.1645 134.88C60.2414 134.971 60.2996 135.076 60.3357 135.19C60.3719 135.303 60.3853 135.423 60.3752 135.542C59.9951 139.98 61.8818 144.554 65.076 146.921C65.2295 147.034 65.3434 147.193 65.4013 147.374C65.4592 147.556 65.4583 147.751 65.3986 147.932C65.3389 148.114 65.2235 148.271 65.0689 148.383C64.9143 148.494 64.7283 148.554 64.5376 148.554H64.5331Z" fill="#6A79A8"/>
<path d="M84.2932 133.212H84.1801C84.0621 133.197 83.9483 133.159 83.845 133.1C83.7418 133.041 83.6513 132.962 83.5786 132.868C83.5059 132.774 83.4525 132.666 83.4214 132.551C83.3903 132.436 83.3821 132.317 83.3973 132.199C83.5122 131.149 83.328 130.088 82.8661 129.139C82.4042 128.19 81.6834 127.39 80.7868 126.833C80.581 126.709 80.4327 126.509 80.3746 126.276C80.3165 126.043 80.3533 125.797 80.4768 125.591C80.6004 125.385 80.8007 125.237 81.0336 125.179C81.2665 125.12 81.513 125.157 81.7188 125.281C82.9135 126.023 83.8736 127.088 84.4878 128.353C85.1019 129.618 85.3451 131.032 85.189 132.429C85.1595 132.646 85.0525 132.845 84.8878 132.989C84.7231 133.133 84.5119 133.212 84.2932 133.212Z" fill="#6A79A8"/>
<path d="M87.4181 136.365C87.2166 136.366 87.0208 136.299 86.8616 136.175C86.6731 136.028 86.5506 135.812 86.521 135.575C86.4913 135.337 86.5568 135.098 86.7033 134.908C87.513 133.866 88.0511 132.639 88.2689 131.337C88.4868 130.036 88.3777 128.7 87.9515 127.451C87.5253 126.202 86.7953 125.079 85.8271 124.182C84.859 123.285 83.6831 122.642 82.4051 122.313C82.1809 122.245 81.9915 122.094 81.8765 121.89C81.7615 121.686 81.73 121.446 81.7885 121.219C81.8471 120.993 81.9912 120.798 82.1905 120.675C82.3898 120.552 82.6289 120.512 82.8576 120.562C84.4272 120.964 85.872 121.751 87.0617 122.851C88.2514 123.951 89.1486 125.33 89.6724 126.863C90.1962 128.396 90.3302 130.036 90.0623 131.634C89.7943 133.232 89.1328 134.738 88.1375 136.017C88.0523 136.126 87.9431 136.214 87.8184 136.275C87.6937 136.335 87.5567 136.366 87.4181 136.365Z" fill="#6A79A8"/>
<path d="M290.281 161.788C286.069 161.775 281.871 161.3 277.762 160.372C277.646 160.346 277.536 160.297 277.439 160.228C277.342 160.16 277.259 160.072 277.195 159.972C277.131 159.871 277.088 159.759 277.068 159.642C277.048 159.524 277.051 159.404 277.077 159.288C277.103 159.172 277.152 159.062 277.22 158.965C277.289 158.867 277.376 158.785 277.477 158.721C277.577 158.657 277.689 158.614 277.807 158.594C277.924 158.573 278.044 158.577 278.16 158.603C291.173 161.512 303.741 159.765 313.546 153.676C321.432 148.763 327.44 141.345 330.607 132.61C330.645 132.495 330.706 132.389 330.785 132.298C330.865 132.207 330.962 132.133 331.071 132.08C331.18 132.027 331.298 131.996 331.419 131.99C331.54 131.984 331.661 132.002 331.774 132.043C331.888 132.084 331.992 132.147 332.081 132.23C332.17 132.312 332.241 132.411 332.291 132.521C332.341 132.631 332.368 132.751 332.371 132.871C332.374 132.992 332.353 133.113 332.308 133.225C329.002 142.342 322.731 150.085 314.5 155.214C307.501 159.562 299.172 161.788 290.281 161.788Z" fill="#47485E"/>
<path d="M326.847 315.219C348.666 315.219 366.354 297.531 366.354 275.712C366.354 253.892 348.666 236.205 326.847 236.205C305.028 236.205 287.34 253.892 287.34 275.712C287.34 297.531 305.028 315.219 326.847 315.219Z" fill="white"/>
<path d="M330.921 319.291C352.74 319.291 370.428 301.603 370.428 279.784C370.428 257.964 352.74 240.277 330.921 240.277C309.102 240.277 291.414 257.964 291.414 279.784C291.414 301.603 309.102 319.291 330.921 319.291Z" fill="#36E636"/>
<path d="M326.851 316.128C318.857 316.129 311.042 313.76 304.395 309.319C297.748 304.879 292.567 298.567 289.508 291.182C286.448 283.797 285.647 275.67 287.206 267.83C288.765 259.99 292.614 252.788 298.266 247.135C303.918 241.482 311.119 237.632 318.96 236.072C326.8 234.513 334.926 235.313 342.312 238.372C349.697 241.431 356.01 246.611 360.451 253.257C364.892 259.904 367.263 267.718 367.263 275.712C367.252 286.427 362.991 296.7 355.415 304.277C347.838 311.854 337.566 316.116 326.851 316.128ZM326.851 237.11C319.215 237.109 311.75 239.373 305.4 243.614C299.051 247.856 294.102 253.886 291.179 260.94C288.256 267.995 287.492 275.758 288.981 283.247C290.471 290.737 294.148 297.616 299.547 303.015C304.947 308.415 311.826 312.092 319.315 313.582C326.805 315.071 334.568 314.306 341.622 311.384C348.677 308.461 354.707 303.512 358.948 297.162C363.19 290.813 365.454 283.348 365.453 275.712C365.441 265.478 361.37 255.666 354.133 248.429C346.897 241.193 337.085 237.122 326.851 237.11Z" fill="#6A79A8"/>
<path d="M324.925 290.548C324.326 290.548 323.752 290.31 323.328 289.887L311.239 277.798C310.826 277.371 310.598 276.8 310.604 276.207C310.609 275.614 310.847 275.046 311.266 274.627C311.686 274.207 312.253 273.969 312.846 273.964C313.439 273.959 314.011 274.187 314.437 274.599L324.812 284.996L346.556 260.289C346.956 259.852 347.511 259.589 348.102 259.557C348.693 259.524 349.274 259.725 349.718 260.116C350.163 260.507 350.437 261.057 350.481 261.647C350.525 262.238 350.336 262.822 349.954 263.275L326.621 289.783C326.417 290.015 326.167 290.203 325.886 290.334C325.606 290.466 325.302 290.538 324.993 290.548H324.925Z" fill="white"/>
<path d="M168.989 104.572C168.557 104.555 168.14 104.412 167.789 104.16C167.438 103.908 167.169 103.558 167.015 103.154C166.861 102.75 166.83 102.31 166.924 101.889C167.019 101.467 167.235 101.083 167.547 100.783C167.858 100.483 168.25 100.282 168.675 100.204C169.1 100.125 169.539 100.174 169.936 100.343C170.334 100.512 170.673 100.794 170.912 101.154C171.15 101.514 171.278 101.937 171.278 102.369C171.262 102.963 171.014 103.528 170.585 103.94C170.157 104.353 169.583 104.58 168.989 104.572Z" fill="white"/>
<path d="M233.84 104.572C233.408 104.555 232.991 104.412 232.64 104.16C232.289 103.908 232.02 103.558 231.867 103.154C231.713 102.75 231.682 102.31 231.776 101.889C231.87 101.467 232.087 101.083 232.398 100.783C232.709 100.483 233.102 100.282 233.527 100.204C233.952 100.125 234.39 100.174 234.788 100.343C235.186 100.512 235.525 100.794 235.763 101.154C236.002 101.514 236.129 101.937 236.129 102.369C236.114 102.963 235.865 103.528 235.437 103.94C235.008 104.353 234.435 104.58 233.84 104.572Z" fill="white"/>
<path d="M201.803 122.312C195.082 122.313 188.586 119.894 183.502 115.498C183.397 115.426 183.309 115.332 183.244 115.223C183.178 115.115 183.136 114.993 183.12 114.867C183.105 114.741 183.116 114.613 183.153 114.491C183.19 114.37 183.252 114.257 183.335 114.162C183.419 114.066 183.522 113.988 183.637 113.935C183.752 113.881 183.877 113.853 184.004 113.851C184.132 113.849 184.258 113.874 184.374 113.924C184.491 113.974 184.596 114.048 184.683 114.141C189.394 118.21 195.399 120.468 201.624 120.511C207.848 120.554 213.885 118.379 218.652 114.376C218.837 114.235 219.069 114.17 219.301 114.195C219.532 114.22 219.745 114.334 219.895 114.513C220.045 114.691 220.12 114.92 220.105 115.153C220.09 115.385 219.986 115.603 219.814 115.761C214.766 119.992 208.39 122.311 201.803 122.312Z" fill="white"/>
</svg>
