<svg width="73" height="73" viewBox="0 0 73 73" fill="none" xmlns="http://www.w3.org/2000/svg">
<path d="M36.5 73C29.281 73 22.2241 70.8593 16.2217 66.8486C10.2193 62.838 5.54101 57.1374 2.77841 50.4679C0.0158148 43.7984 -0.707007 36.4595 0.701354 29.3792C2.10971 22.2989 5.586 15.7952 10.6906 10.6906C15.7952 5.586 22.2989 2.10971 29.3792 0.701354C36.4595 -0.707007 43.7984 0.0158148 50.4679 2.77841C57.1374 5.54101 62.838 10.2193 66.8486 16.2217C70.8593 22.2241 73 29.281 73 36.5C72.9898 46.1773 69.141 55.4553 62.2982 62.2982C55.4553 69.141 46.1773 72.9898 36.5 73ZM36.5 3.84212C30.0409 3.84212 23.7268 5.75747 18.3563 9.34597C12.9857 12.9345 8.79985 18.0349 6.32805 24.0024C3.85626 29.9698 3.20952 36.5362 4.46963 42.8712C5.72974 49.2063 8.84011 55.0253 13.4074 59.5926C17.9747 64.1599 23.7938 67.2703 30.1288 68.5304C36.4638 69.7905 43.0302 69.1438 48.9976 66.672C54.9651 64.2002 60.0656 60.0143 63.654 54.6438C67.2425 49.2732 69.1579 42.9591 69.1579 36.5C69.1477 27.8417 65.7037 19.541 59.5814 13.4186C53.4591 7.29629 45.1583 3.85229 36.5 3.84212ZM49.3864 49.3864C49.7466 49.0262 49.9489 48.5376 49.9489 48.0282C49.9489 47.5188 49.7466 47.0303 49.3864 46.6701L38.4211 35.7047V13.4474C38.4211 12.9379 38.2187 12.4493 37.8584 12.089C37.4981 11.7287 37.0095 11.5263 36.5 11.5263C35.9905 11.5263 35.5019 11.7287 35.1416 12.089C34.7813 12.4493 34.579 12.9379 34.579 13.4474V36.5C34.5785 36.7525 34.6278 37.0025 34.7241 37.2359C34.8203 37.4693 34.9616 37.6814 35.1399 37.8601L46.6662 49.3864C47.0265 49.7466 47.515 49.9489 48.0244 49.9489C48.5338 49.9489 49.0223 49.7466 49.3826 49.3864H49.3864Z" fill="#274C5B"/>
</svg>
