<svg width="76" height="96" viewBox="0 0 76 96" fill="none" xmlns="http://www.w3.org/2000/svg">
<path d="M15.0131 0.265972C13.8672 0.679272 12.5145 2.06946 12.12 3.23421C11.4061 5.30071 11.9322 7.44235 13.4914 8.83254C14.5622 9.80943 15.4076 10.1476 16.8918 10.1664C20.5739 10.2227 23.0725 6.46546 21.6447 3.02756C21.269 2.12582 20.1418 0.94228 19.24 0.472622C18.2068 -0.0533953 16.1403 -0.166113 15.0131 0.265972ZM18.3947 3.253C19.4467 4.17353 19.503 5.73279 18.5449 6.70968C17.5493 7.70536 16.0276 7.61143 15.0883 6.50303C14.2429 5.48857 14.5622 3.68508 15.7082 3.04635C16.3845 2.67062 17.8686 2.78334 18.3947 3.253Z" fill="#274C5B"/>
<path d="M27.5811 7.78034C26.3412 8.23121 24.7255 9.92198 24.2935 11.1994C23.4105 13.9047 24.6316 16.8729 27.1678 18.1128C29.2531 19.1273 31.808 18.6952 33.5363 17.0044C36.1664 14.4307 35.5277 9.95955 32.2964 8.15606C31.0378 7.44218 28.9525 7.2731 27.5811 7.78034ZM30.8875 10.5795C32.1461 11.1807 32.7097 12.7775 32.1274 14.0925C30.8875 16.9105 26.8296 16.0839 26.8296 13.0029C26.8296 10.974 28.99 9.67775 30.8875 10.5795Z" fill="#274C5B"/>
<path d="M18.0387 22.2267C14.8075 23.8424 14.7136 28.5765 17.8884 30.2861L18.5648 30.6618V40.3555V50.0681L10.1109 63.4439C5.45189 70.7894 1.39405 77.3082 1.09346 77.9282C0.210508 79.6565 -0.0900738 81.2346 0.0226442 83.6392C0.0790032 85.2361 0.210508 85.9875 0.567448 86.9644C1.93885 90.6465 4.73801 93.3518 8.3262 94.4977L9.64125 94.911H29.7426C45.3541 94.911 49.9379 94.8547 50.2573 94.6856C50.5767 94.4789 50.8021 94.5165 51.4972 94.8171C54.0333 95.9443 58.5608 96.3388 61.5479 95.6813C68.4425 94.1784 73.7966 88.8243 75.1868 82.0048C75.5249 80.3516 75.5813 77.0077 75.2807 75.3545C75.0552 74.0206 74.2474 71.5221 73.9281 71.0524C73.7026 70.7518 73.6087 70.7706 72.5003 71.3154C71.5798 71.7851 71.3543 71.9917 71.4483 72.2359C72.3312 74.5091 72.5379 75.4672 72.6318 77.8155C72.7445 80.8401 72.3688 82.5684 71.035 85.2361C70.2835 86.739 69.8702 87.3026 68.3485 88.8243C66.7517 90.4399 66.3384 90.7405 64.5913 91.5859C61.9987 92.8258 60.5334 93.1827 57.9221 93.1639C49.3931 93.1451 42.7803 86.1942 43.2312 77.7215C43.3627 75.223 43.7009 73.9455 44.8093 71.7475C46.6315 68.0654 50.1821 65.2098 54.2776 64.0827C56.1374 63.5567 59.9323 63.5942 61.8297 64.1578C64.6288 64.9656 66.8456 66.3182 68.8182 68.4411L69.9641 69.6622L71.035 68.892C71.6173 68.4599 72.1058 68.0466 72.1058 67.9527C72.1058 67.6145 68.9873 64.6087 67.8037 63.8197C62.6187 60.3442 55.818 59.8745 50.2385 62.6173C49.5246 62.9743 48.9235 63.2373 48.9047 63.1997C48.8671 63.1809 46.9885 60.1939 44.6965 56.5681L40.5448 49.9741V40.2992V30.6054L41.1271 30.38C41.4465 30.2485 41.9537 29.8916 42.2543 29.5722C44.1329 27.7123 44.1329 24.8568 42.2731 23.0533C41.1271 21.9449 40.3569 21.7383 37.5577 21.7383H35.2846V23.1473V24.5562H37.4638C38.6473 24.5562 39.7933 24.6502 40 24.7441C40.526 25.0447 40.9581 26.0028 40.8266 26.604C40.7702 26.9045 40.5072 27.3366 40.2442 27.5808L39.7557 28.0317L29.9117 28.0693C23.5431 28.0881 19.8422 28.0317 19.4853 27.9002C18.3017 27.4869 17.9636 25.9464 18.8653 25.0447L19.3726 24.5562H25.9102H32.4666V23.1473V21.7383H25.7411H19.0156L18.0387 22.2267ZM37.7268 40.8628V50.8007L40.5448 55.2531C42.104 57.7141 43.3627 59.743 43.3627 59.7994C43.3627 59.837 39.0043 59.8745 33.6877 59.8745H24.0128V61.3774V62.8803H34.7022H45.3728L45.974 63.8384C46.2934 64.3645 46.5564 64.8153 46.5564 64.8341C46.5564 64.8717 46.0116 65.4541 45.3353 66.1492C42.2167 69.3992 40.6011 73.1753 40.4133 77.7215C40.2066 82.6811 41.7659 86.8517 45.2038 90.515L46.7818 92.187H28.6718C9.37824 92.187 9.71639 92.2058 7.81897 91.2665C5.95912 90.3647 4.23078 88.4861 3.36661 86.4008C3.00967 85.593 2.89695 84.8791 2.82181 83.4514C2.6903 80.5019 2.82181 80.2201 8.70193 70.9209L13.7742 62.8991L17.4376 62.8428L21.1009 62.7864V61.3774V59.9685L18.4332 59.8745L15.7656 59.7806L18.5648 55.3282L21.3827 50.8759V40.9003V30.9436H29.5548H37.7268V40.8628Z" fill="#274C5B"/>
<path d="M29.65 39.0218V40.3368H28.241H26.832V41.7458V43.1548H28.241H29.65V41.8397V40.5247H31.059H32.4679V39.1157V37.7068H31.059H29.65V39.0218Z" fill="#274C5B"/>
<path d="M8.21373 78.0597C6.33509 81.0467 6.16602 81.46 6.16602 83.1696C6.16602 85.9124 8.28887 88.3734 10.9565 88.7491L11.8019 88.8618V87.4153C11.8019 86.2317 11.7456 85.9875 11.5013 85.9875C10.9002 85.9875 9.88571 85.3488 9.43484 84.6913C9.09668 84.2028 8.98396 83.7707 8.98396 83.0756C8.98396 82.1927 9.11547 81.8921 10.5996 79.525C11.4825 78.116 12.1964 76.9325 12.1589 76.9137C12.1213 76.8761 11.5953 76.5568 11.0129 76.1623C10.4117 75.7865 9.90449 75.4672 9.88571 75.4672C9.84814 75.4672 9.09668 76.6319 8.21373 78.0597Z" fill="#274C5B"/>
<path d="M50.2186 71.5222L49.2793 72.4615L52.5293 75.7115L55.7606 78.9428L52.5669 82.1364C50.8198 83.8836 49.3732 85.4053 49.3732 85.518C49.3732 85.6307 49.8053 86.1379 50.3125 86.6452L51.2519 87.5845L54.5395 84.2969L57.8271 81.0093L61.0771 84.2593L64.3084 87.4905L65.304 86.5137L66.2809 85.518L63.0497 82.2867L59.7996 79.0367L63.0497 75.7867L66.2809 72.5554L65.2477 71.5222L64.2144 70.4889L60.9644 73.7389L57.7331 76.9702L54.5395 73.7765C52.7923 72.0294 51.3082 70.5828 51.2519 70.5828C51.1955 70.5828 50.7258 71.0149 50.2186 71.5222Z" fill="#274C5B"/>
</svg>
