<svg width="26" height="30" viewBox="0 0 26 30" fill="none" xmlns="http://www.w3.org/2000/svg">
<path d="M12.8034 14.4512C14.8657 14.4512 16.6513 13.7391 18.1107 12.3342C19.5696 10.9296 20.3095 9.21088 20.3095 7.22537C20.3095 5.24045 19.5698 3.5216 18.1104 2.11646C16.651 0.712031 14.8654 0 12.8034 0C10.7408 0 8.95542 0.712031 7.49632 2.1167C6.03723 3.52137 5.29728 5.24027 5.29728 7.22537C5.29728 9.21088 6.03717 10.9298 7.49639 12.3345C8.95597 13.7389 10.7415 14.4512 12.8033 14.4512H12.8034ZM8.78785 3.35977C9.90743 2.28193 11.2209 1.75805 12.8034 1.75805C14.3857 1.75805 15.6993 2.28193 16.8191 3.35977C17.9388 4.43777 18.4832 5.70234 18.4832 7.22531C18.4832 8.74875 17.9388 10.0131 16.8191 11.0912C15.6993 12.1692 14.3857 12.6931 12.8034 12.6931C11.2213 12.6931 9.90798 12.169 8.78785 11.0912C7.66797 10.0134 7.12352 8.74881 7.12352 7.22537C7.12352 5.70234 7.66797 4.43777 8.78785 3.35977ZM25.937 23.0685C25.8949 22.484 25.8098 21.8463 25.6845 21.173C25.558 20.4945 25.3952 19.8532 25.2002 19.267C24.9986 18.6612 24.7249 18.0629 24.3861 17.4895C24.0349 16.8945 23.6222 16.3762 23.159 15.9499C22.6747 15.5038 22.0817 15.1451 21.396 14.8835C20.7127 14.6233 19.9554 14.4915 19.1454 14.4915C18.8272 14.4915 18.5196 14.6171 17.9254 14.9895C17.5031 15.2543 17.0795 15.5172 16.6546 15.7782C16.2464 16.0286 15.6933 16.2632 15.0102 16.4756C14.3438 16.6832 13.6672 16.7885 12.999 16.7885C12.3314 16.7885 11.6547 16.6832 10.9878 16.4756C10.3055 16.2634 9.75222 16.0288 9.34466 15.7784C8.87173 15.4875 8.44383 15.222 8.07267 14.9892C7.47898 14.6169 7.1713 14.4912 6.85321 14.4912C6.04289 14.4912 5.2859 14.6232 4.60279 14.8838C3.91755 15.1449 3.32435 15.5036 2.83955 15.9501C2.37641 16.3767 1.96368 16.8946 1.61272 17.4895C1.27442 18.0629 1.00052 18.6609 0.798874 19.2673C0.604101 19.8534 0.441283 20.4945 0.314802 21.173C0.189234 21.8454 0.104386 22.4833 0.0622665 23.0692C0.0208772 23.6421 0 24.2384 0 24.8408C0 26.4068 0.517122 27.6745 1.53688 28.6095C2.54404 29.5322 3.87647 30 5.49722 30H20.5028C22.123 30 23.4555 29.5322 24.4629 28.6096C25.4829 27.6752 26 26.407 26 24.8405C25.9998 24.2361 25.9786 23.6398 25.937 23.0685ZM23.2037 27.3358C22.5382 27.9455 21.6547 28.242 20.5025 28.242H5.49728C4.3449 28.242 3.46136 27.9455 2.79609 27.3361C2.14348 26.738 1.8263 25.9216 1.8263 24.8408C1.8263 24.2786 1.84553 23.7236 1.88412 23.1908C1.92162 22.668 1.99843 22.0937 2.11237 21.4835C2.22479 20.8809 2.36789 20.3153 2.53814 19.8033C2.7015 19.3123 2.92427 18.8262 3.20055 18.3579C3.46422 17.9116 3.76758 17.5287 4.10234 17.2202C4.4155 16.9315 4.81022 16.6954 5.27524 16.5182C5.70533 16.3543 6.18873 16.2646 6.71346 16.251C6.77737 16.2838 6.89131 16.3463 7.0758 16.4621C7.45122 16.6976 7.88392 16.9663 8.36233 17.2604C8.90161 17.5914 9.59628 17.8903 10.4263 18.1482C11.2749 18.4124 12.1403 18.5465 12.9993 18.5465C13.8584 18.5465 14.724 18.4124 15.5722 18.1485C16.4029 17.8901 17.0974 17.5914 17.6374 17.26C18.1269 16.9588 18.5475 16.6979 18.9229 16.4621C19.1074 16.3465 19.2213 16.2838 19.2853 16.2511C19.8102 16.2646 20.2936 16.3543 20.7239 16.5182C21.1887 16.6954 21.5835 16.9318 21.8966 17.2201C22.2313 17.5284 22.5347 17.9114 22.7984 18.3582C23.0749 18.8262 23.298 19.3126 23.461 19.8031C23.6315 20.3158 23.7748 20.8811 23.8871 21.4833C24.0007 22.0946 24.0778 22.6692 24.1153 23.191V23.1915C24.1541 23.7222 24.1736 24.277 24.1738 24.8408C24.1736 25.9218 23.8564 26.738 23.2038 27.3358H23.2037Z" fill="black"/>
</svg>
