<svg width="20" height="24" viewBox="0 0 20 24" fill="none" xmlns="http://www.w3.org/2000/svg">
<path d="M9.84877 11.5608C11.4351 11.5608 12.8089 10.9912 13.9313 9.86725C15.0537 8.74357 15.6227 7.36865 15.6227 5.78025C15.6227 4.19233 15.0537 2.81726 13.9311 1.69316C12.8085 0.56962 11.435 0 9.84877 0C8.26217 0 6.88879 0.56962 5.76641 1.69335C4.64403 2.81707 4.07483 4.19219 4.07483 5.78025C4.07483 7.36865 4.64398 8.74376 5.76659 9.86749C6.88921 10.991 8.26273 11.5608 9.84877 11.5608ZM19.9515 18.4547C19.9191 17.9871 19.8537 17.4769 19.7573 16.9382C19.66 16.3955 19.5347 15.8824 19.3847 15.4135C19.2299 14.9288 19.0192 14.4502 18.7587 13.9915C18.4884 13.5155 18.1709 13.1009 17.8146 12.7598C17.4421 12.4029 16.9859 12.116 16.4585 11.9067C15.9329 11.6985 15.3503 11.5931 14.7272 11.5931C14.4825 11.5931 14.2459 11.6936 13.7888 11.9915C13.4639 12.2033 13.1381 12.4136 12.8112 12.6224C12.4972 12.8228 12.0718 13.0105 11.5463 13.1804C11.0337 13.3465 10.5132 13.4307 9.99944 13.4307C9.48573 13.4307 8.96536 13.3465 8.45217 13.1804C7.92731 13.0106 7.5019 12.823 7.1882 12.6226C6.82441 12.3899 6.49526 12.1775 6.20975 11.9913C5.75325 11.6934 5.51639 11.5928 5.2717 11.5928C4.64838 11.5928 4.06608 11.6985 3.54061 11.9069C3.01351 12.1158 2.55719 12.4027 2.18427 12.76C1.8282 13.1013 1.51052 13.5156 1.24056 13.9915C0.98033 14.4502 0.769638 14.9286 0.614522 15.4137C0.464697 15.8826 0.339452 16.3955 0.24216 16.9382C0.145756 17.4762 0.0803014 17.9865 0.0479017 18.4552C0.0156715 18.927 -0.000303778 19.3996 4.37368e-06 19.8725C4.37368e-06 21.1253 0.397791 22.1395 1.18222 22.8874C1.95696 23.6256 2.98204 24 4.22864 24H15.7714C17.018 24 18.0427 23.6258 18.8176 22.8875C19.6022 22.14 20 21.1256 20 19.8723C19.9998 19.3887 19.9836 18.9117 19.9515 18.4547Z" fill="#47485E"/>
</svg>
